<svg width="512" height="512" viewBox="0 0 512 512" fill="none" xmlns="http://www.w3.org/2000/svg">
<g clip-path="url(#clip0_1_6)">
<g opacity="0.431">
<path fill-rule="evenodd" clip-rule="evenodd" d="M498.688 0C503.125 0 507.563 0 512 0C511.131 4.30394 509.595 8.39846 507.392 12.2836C500.423 23.1746 494.109 34.4345 488.448 46.0633C484.35 45.071 481.278 42.3413 479.232 37.8743C472.171 32.196 466.709 25.3718 462.848 17.4017C470.17 14.9701 477.338 12.0697 484.352 8.70085C485.122 8.01424 485.464 7.16121 485.376 6.14178C490.061 4.27689 494.498 2.22963 498.688 0Z" fill="#34D1FB"/>
<path fill-rule="evenodd" clip-rule="evenodd" d="M485.376 6.14178C485.464 7.16121 485.122 8.01424 484.352 8.70085C477.338 12.0697 470.17 14.9701 462.848 17.4017C466.709 25.3718 472.171 32.196 479.232 37.8743C481.278 42.3413 484.35 45.071 488.448 46.0633C483.845 53.2125 479.749 60.7192 476.16 68.5832C472.827 65.0851 469.243 61.6729 465.408 58.3469C461.768 52.6517 457.33 47.5335 452.096 42.9924C451.755 41.9688 451.413 40.9452 451.072 39.9215C446.392 36.2706 442.467 32.0055 439.296 27.1262C448.952 22.554 458.509 17.9477 467.968 13.3072C468.487 11.9162 469.511 10.8925 471.04 10.2363C475.699 8.37099 480.477 7.00616 485.376 6.14178Z" fill="#34D1FB"/>
<path fill-rule="evenodd" clip-rule="evenodd" d="M467.968 13.3072C458.509 17.9477 448.952 22.554 439.296 27.1262C442.467 32.0055 446.392 36.2706 451.072 39.9215C451.413 40.9452 451.755 41.9688 452.096 42.9924C457.33 47.5335 461.768 52.6517 465.408 58.3469C469.243 61.6729 472.827 65.0851 476.16 68.5832C472.704 73.16 470.314 78.2781 468.992 83.9376C467.586 84.098 466.22 83.9274 464.896 83.4258C460.4 78.2475 455.28 73.8119 449.536 70.1186C448.766 69.4319 448.424 68.579 448.512 67.5595C448.646 66.6624 448.305 65.98 447.488 65.5123C446.248 66.4231 444.882 66.4231 443.392 65.5123C441.028 64.0022 438.809 62.2961 436.736 60.3941C436.217 58.8627 436.729 57.6685 438.272 56.8114C437.631 56.0433 437.119 55.1902 436.736 54.2523C436.309 55.538 435.456 56.2204 434.176 56.2996C431.009 52.4455 427.254 49.3747 422.912 47.0869C420.503 43.6591 417.772 40.5882 414.72 37.8743C410.777 37.0094 408.729 34.621 408.576 30.7089C413.217 29.9493 417.825 28.9257 422.4 27.638C434.176 23.3728 445.952 19.1078 457.728 14.8426C461.1 13.9975 464.513 13.4857 467.968 13.3072Z" fill="#34D1FB"/>
<path fill-rule="evenodd" clip-rule="evenodd" d="M448.512 67.5595C446.533 67.7935 444.826 68.6465 443.392 70.1186C436.876 76.8671 430.732 83.8619 424.96 91.103C424.021 91.745 422.997 92.0863 421.888 92.1266C420.825 90.4802 421.508 89.4566 423.936 89.0557C424.716 87.9008 425.399 86.7066 425.984 85.473C422.077 82.3097 418.323 78.8977 414.72 75.2367C416.587 73.5397 418.294 71.663 419.84 69.6068C419.372 68.7904 418.689 68.4492 417.792 68.5832C422.721 63.928 428.182 59.8335 434.176 56.2996C435.456 56.2204 436.309 55.538 436.736 54.2523C437.119 55.1902 437.631 56.0433 438.272 56.8114C436.729 57.6685 436.217 58.8627 436.736 60.3941C438.809 62.2961 441.028 64.0022 443.392 65.5123C444.882 66.4231 446.248 66.4231 447.488 65.5123C448.305 65.98 448.646 66.6624 448.512 67.5595Z" fill="#34D1FB"/>
<path fill-rule="evenodd" clip-rule="evenodd" d="M417.792 68.5832C418.689 68.4492 419.372 68.7904 419.84 69.6068C418.294 71.663 416.587 73.5397 414.72 75.2367C418.323 78.8977 422.077 82.3097 425.984 85.473C425.399 86.7066 424.716 87.9008 423.936 89.0557C421.508 89.4566 420.825 90.4802 421.888 92.1266C421.487 93.8452 420.975 95.5512 420.352 97.2448C417.257 99.4846 414.698 102.214 412.672 105.434C411.733 106.076 410.709 106.418 409.6 106.457C409.487 104.099 408.463 101.711 406.528 99.292C403.354 95.8234 399.941 92.5818 396.288 89.5676C398.904 87.317 398.904 86.1228 396.288 85.9848C398.127 84.1707 399.834 82.1234 401.408 79.8431C406.928 76.0695 412.389 72.3162 417.792 68.5832Z" fill="#34D1FB"/>
<path fill-rule="evenodd" clip-rule="evenodd" d="M307.2 92.1266C307.288 93.1461 306.946 93.999 306.176 94.6857C308.03 97.7341 310.419 100.293 313.344 102.363C314.144 103.621 314.656 104.985 314.88 106.457C329.307 122.054 343.472 137.751 357.376 153.544C357.732 156.523 359.268 158.57 361.984 159.686C363.118 158.446 363.63 158.786 363.52 160.71C361.628 162.726 359.58 164.774 357.376 166.852C356.011 168.216 354.645 168.216 353.28 166.852C350.819 163.712 347.747 161.324 344.064 159.686C338.84 153.69 333.379 147.89 327.68 142.284C321.501 138.492 316.381 133.715 312.32 127.954C311.945 126.73 311.092 126.049 309.76 125.906C308.31 127.005 306.944 127.005 305.664 125.906C305.349 126.733 304.837 127.416 304.128 127.954C299.594 121.964 294.816 116.165 289.792 110.552C294.976 103.669 300.779 97.527 307.2 92.1266Z" fill="#34D1FB"/>
<path fill-rule="evenodd" clip-rule="evenodd" d="M311.296 88.0321C326.182 96.772 340.518 106.325 354.304 116.694C356.003 119.395 357.88 119.395 359.936 116.694C367.199 124.124 374.196 131.631 380.928 139.214C379.771 141.132 378.747 143.179 377.856 145.355C372.72 150.149 367.941 155.267 363.52 160.71C363.63 158.786 363.118 158.446 361.984 159.686C359.268 158.57 357.732 156.523 357.376 153.544C343.472 137.751 329.307 122.054 314.88 106.457C314.656 104.985 314.144 103.621 313.344 102.363C310.419 100.293 308.03 97.7341 306.176 94.6857C306.946 93.999 307.288 93.1461 307.2 92.1266C307.541 89.7382 308.907 88.3733 311.296 88.0321Z" fill="#34D1FB"/>
<path fill-rule="evenodd" clip-rule="evenodd" d="M396.288 85.9848C398.904 86.1228 398.904 87.317 396.288 89.5676C399.941 92.5818 403.354 95.8234 406.528 99.292C408.463 101.711 409.487 104.099 409.6 106.457C405.663 113.475 400.543 119.617 394.24 124.883C390.808 130.699 386.37 135.476 380.928 139.214C374.196 131.631 367.199 124.124 359.936 116.694C357.88 119.395 356.003 119.395 354.304 116.694C357.109 113.943 360.522 111.896 364.544 110.552C365.52 108.551 366.886 106.844 368.64 105.434C377.901 98.8886 387.117 92.4057 396.288 85.9848Z" fill="#34D1FB"/>
<path fill-rule="evenodd" clip-rule="evenodd" d="M288.768 105.434C288.216 107.486 287.534 109.533 286.72 111.576C281.777 116.009 277.339 120.956 273.408 126.418C276.547 132.119 280.643 137.066 285.696 141.261C286.46 142.526 286.801 143.892 286.72 145.355C288.427 145.355 290.133 145.355 291.84 145.355C286.369 150.146 281.591 155.606 277.504 161.733C275.629 162.298 273.923 162.298 272.384 161.733C266.929 155.449 261.809 148.966 257.024 142.284C258.692 139.085 260.91 136.355 263.68 134.095C265.309 131.611 266.163 128.882 266.24 125.906C274.429 119.765 281.938 112.941 288.768 105.434Z" fill="#34D1FB"/>
<path fill-rule="evenodd" clip-rule="evenodd" d="M311.296 88.0321C308.907 88.3733 307.541 89.7382 307.2 92.1266C300.779 97.527 294.976 103.669 289.792 110.552C294.816 116.165 299.594 121.964 304.128 127.954C304.837 127.416 305.349 126.733 305.664 125.906C306.944 127.005 308.31 127.005 309.76 125.906C311.092 126.049 311.945 126.73 312.32 127.954C310.845 127.07 309.479 127.07 308.224 127.954C302.518 133.592 297.057 139.393 291.84 145.355C290.133 145.355 288.427 145.355 286.72 145.355C286.801 143.892 286.46 142.526 285.696 141.261C280.643 137.066 276.547 132.119 273.408 126.418C277.339 120.956 281.777 116.009 286.72 111.576C287.534 109.533 288.216 107.486 288.768 105.434C294.863 99.3412 301.007 93.1994 307.2 87.0085C307.883 86.6673 308.565 86.326 309.248 85.9848C310.49 86.2379 311.173 86.9202 311.296 88.0321Z" fill="#34D1FB"/>
<path fill-rule="evenodd" clip-rule="evenodd" d="M266.24 125.906C266.163 128.882 265.309 131.611 263.68 134.095C260.91 136.355 258.692 139.085 257.024 142.284C261.809 148.966 266.929 155.449 272.384 161.733C273.923 162.298 275.629 162.298 277.504 161.733C269.978 168.234 262.81 175.059 256 182.206C254.447 182.195 253.252 181.513 252.416 180.159C248.401 174.093 243.622 168.634 238.08 163.781C237.397 162.074 237.397 160.369 238.08 158.663C239.813 156.76 241.349 154.712 242.688 152.521C242.207 151.535 241.524 151.535 240.64 152.521C248.779 143.359 257.312 134.488 266.24 125.906Z" fill="#34D1FB"/>
<path fill-rule="evenodd" clip-rule="evenodd" d="M211.968 148.426C208.125 150.389 205.053 153.288 202.752 157.127C215.165 170.59 226.941 184.409 238.08 198.584C239.469 197.683 241.005 197.341 242.688 197.56C238.592 202.338 234.155 206.773 229.376 210.868C219.188 199.313 208.948 187.712 198.656 176.064C196.617 172.999 194.569 169.929 192.512 166.852C192.542 165.286 193.225 164.092 194.56 163.269C194.219 162.928 193.877 162.586 193.536 162.245C196.471 161.019 198.349 158.801 199.168 155.592C200.104 156.773 200.957 156.602 201.728 155.08C200.958 154.393 200.616 153.54 200.704 152.521C202.859 151.232 204.907 149.697 206.848 147.914C208.655 147.259 210.362 147.43 211.968 148.426Z" fill="#34D1FB"/>
<path fill-rule="evenodd" clip-rule="evenodd" d="M211.968 148.426C215.984 152.847 220.08 157.284 224.256 161.733C226.304 163.098 228.352 163.098 230.4 161.733C233.575 158.209 236.988 155.138 240.64 152.521C241.524 151.535 242.207 151.535 242.688 152.521C241.349 154.712 239.813 156.76 238.08 158.663C237.397 160.369 237.397 162.074 238.08 163.781C243.622 168.634 248.401 174.093 252.416 180.159C253.252 181.513 254.447 182.195 256 182.206C251.747 187.369 247.309 192.487 242.688 197.56C241.005 197.341 239.469 197.683 238.08 198.584C226.941 184.409 215.165 170.59 202.752 157.127C205.053 153.288 208.125 150.389 211.968 148.426Z" fill="#34D1FB"/>
<path fill-rule="evenodd" clip-rule="evenodd" d="M200.704 152.521C200.616 153.54 200.958 154.393 201.728 155.08C200.957 156.602 200.104 156.773 199.168 155.592C198.349 158.801 196.471 161.019 193.536 162.245C193.877 162.586 194.219 162.928 194.56 163.269C193.225 164.092 192.542 165.286 192.512 166.852C194.569 169.929 196.617 172.999 198.656 176.064C208.948 187.712 219.188 199.313 229.376 210.868C227.431 213.836 224.7 215.542 221.184 215.986C221.452 214.473 221.111 213.108 220.16 211.891C218.158 210.916 216.451 209.55 215.04 207.797C211.937 203.5 209.036 199.063 206.336 194.49C201.672 197.893 197.405 201.818 193.536 206.261C191.323 206.86 189.275 207.713 187.392 208.82C183.056 203.97 178.448 199.193 173.568 194.49C173.042 191.902 171.848 189.684 169.984 187.836C173.21 184.816 175.258 181.234 176.128 177.088C183.637 168.216 191.829 160.027 200.704 152.521Z" fill="#34D1FB"/>
<path fill-rule="evenodd" clip-rule="evenodd" d="M176.128 177.088C175.258 181.234 173.21 184.816 169.984 187.836C171.848 189.684 173.042 191.902 173.568 194.49C178.448 199.193 183.056 203.97 187.392 208.82C187.48 209.84 187.138 210.693 186.368 211.379C178.988 217.227 171.478 222.857 163.84 228.269C164.222 224.705 163.198 221.634 160.768 219.057C157.355 214.962 153.6 211.208 149.504 207.797C151.408 205.379 151.75 202.991 150.528 200.631C159.717 193.482 168.25 185.634 176.128 177.088Z" fill="#34D1FB"/>
<path fill-rule="evenodd" clip-rule="evenodd" d="M150.528 200.631C151.75 202.991 151.408 205.379 149.504 207.797C153.6 211.208 157.355 214.962 160.768 219.057C163.198 221.634 164.222 224.705 163.84 228.269C159.074 231.565 154.637 235.318 150.528 239.529C146.501 239.975 144.111 237.927 143.36 233.387C138.865 229.239 134.769 224.802 131.072 220.08C137.557 213.598 144.043 207.114 150.528 200.631Z" fill="#34D1FB"/>
<path fill-rule="evenodd" clip-rule="evenodd" d="M131.072 220.08C134.769 224.802 138.865 229.239 143.36 233.387C144.111 237.927 146.501 239.975 150.528 239.529C141.104 246.795 131.546 254.131 121.856 261.537C122.473 263.405 123.156 265.283 123.904 267.167C127.597 269.784 130.84 272.855 133.632 276.38C135.326 275.2 136.862 273.834 138.24 272.285C139.023 273.424 140.047 274.106 141.312 274.333C142.455 278.547 145.186 280.935 149.504 281.498C146.441 314.941 143.198 348.379 139.776 381.814C137.933 383.723 137.763 385.77 139.264 387.955C137.301 387.028 135.595 385.664 134.144 383.861C130.751 366.382 128.02 348.811 125.952 331.144C126.554 317.261 128.943 303.782 133.12 290.711C131.413 288.663 129.707 286.616 128 284.569C123.758 283.675 120.174 281.628 117.248 278.427C116.13 279.242 114.935 279.925 113.664 280.474C110.154 279.21 106.911 277.505 103.936 275.356C92.6302 284.368 81.1956 293.41 69.632 302.482C82.6161 302.653 95.5868 303.165 108.544 304.018C109.227 304.701 109.909 305.382 110.592 306.065C109.174 307.141 108.15 308.505 107.52 310.16C104.191 310.623 101.801 312.329 100.352 315.278C74.583 331.742 49.3243 348.973 24.576 366.971C27.5782 367.947 30.6502 368.458 33.792 368.507C34.0696 370.882 33.387 372.93 31.744 374.648C21.1106 376.556 10.5292 378.604 0 380.79C0 376.696 0 372.601 0 368.507C3.04445 361.046 6.11645 353.539 9.216 345.987C11.1518 345.779 12.6878 346.461 13.824 348.034C14.2469 350.83 14.9296 353.561 15.872 356.223C28.2937 345.855 40.4111 335.107 52.224 323.979C44.2931 323.172 36.4425 323.684 28.672 325.514C24.3769 326.065 22.4996 324.359 23.04 320.396C27.9893 315.449 32.9387 310.501 37.888 305.553C41.0146 302.617 44.4279 300.057 48.128 297.876C54.9874 291.362 61.4727 284.537 67.584 277.404C71.1064 274.374 74.861 271.644 78.848 269.214C95.2456 253.369 111.629 237.332 128 221.104C128.845 220.197 129.869 219.856 131.072 220.08Z" fill="#34D1FB"/>
<path fill-rule="evenodd" clip-rule="evenodd" d="M236.544 241.576C236.687 245.266 238.394 248.506 241.664 251.301C240.848 254.115 240.848 256.674 241.664 258.978C240.981 258.978 240.299 258.978 239.616 258.978C238.439 259.276 237.756 260.129 237.568 261.537C237.848 263.739 238.53 265.786 239.616 267.679C230.153 352.623 221.449 437.754 213.504 523.075C212.527 529.283 211.503 535.425 210.432 541.5C209.659 545.344 209.829 549.097 210.944 552.76C207.189 552.76 203.435 552.76 199.68 552.76C199.746 548.952 200.258 545.199 201.216 541.5C203.939 539.903 205.134 537.515 204.8 534.334C203.313 533.513 201.607 533.002 199.68 532.799C201.317 530.971 202.171 528.753 202.24 526.145C211.728 430.986 221.456 336.13 231.424 241.576C233.131 240.212 234.837 240.212 236.544 241.576Z" fill="#34D1FB"/>
<path fill-rule="evenodd" clip-rule="evenodd" d="M236.544 241.576C239.662 245.206 243.246 248.277 247.296 250.789C249.879 248.576 252.78 248.235 256 249.766C260.874 253.546 265.652 257.299 270.336 261.025C266.973 262.21 263.559 262.381 260.096 261.537C257.49 259.06 254.418 257.525 250.88 256.931C247.839 257.879 244.767 258.561 241.664 258.978C240.848 256.674 240.848 254.115 241.664 251.301C238.394 248.506 236.687 245.266 236.544 241.576Z" fill="#34D1FB"/>
<path fill-rule="evenodd" clip-rule="evenodd" d="M231.424 241.576C221.456 336.13 211.728 430.986 202.24 526.145C202.171 528.753 201.317 530.971 199.68 532.799C201.607 533.002 203.313 533.513 204.8 534.334C198.89 534.962 193.43 534.279 188.416 532.287C193.003 492.849 197.44 453.439 201.728 414.058C202.032 403.021 203.056 392.103 204.8 381.302C204.763 379.158 204.422 377.111 203.776 375.16C204.361 373.927 205.044 372.732 205.824 371.577C208.179 339.632 211.593 307.899 216.064 276.38C216.034 273.545 215.352 271.156 214.016 269.214C215.922 262.323 218.823 255.841 222.72 249.766C225.824 247.173 228.725 244.443 231.424 241.576Z" fill="#34D1FB"/>
<path fill-rule="evenodd" clip-rule="evenodd" d="M239.616 258.978C241.618 264.003 243.325 269.121 244.736 274.333C249.691 275.063 254.47 276.087 259.072 277.404C259.072 281.839 259.072 286.275 259.072 290.711C261.12 290.711 263.168 290.711 265.216 290.711C259.742 293.182 254.281 295.912 248.832 298.9C248.126 300.204 247.272 300.204 246.272 298.9C246.213 304.019 245.36 308.967 243.712 313.742C244.319 316.6 244.66 319.501 244.736 322.443C238.255 383.648 231.599 444.724 224.768 505.673C224.036 516.243 223.524 526.82 223.232 537.405C220.896 536.972 219.189 537.655 218.112 539.453C218.112 543.888 218.112 548.324 218.112 552.76C215.723 552.76 213.333 552.76 210.944 552.76C209.829 549.097 209.659 545.344 210.432 541.5C211.503 535.425 212.527 529.283 213.504 523.075C221.449 437.754 230.153 352.623 239.616 267.679C238.53 265.786 237.848 263.739 237.568 261.537C237.756 260.129 238.439 259.276 239.616 258.978Z" fill="#34D1FB"/>
<path fill-rule="evenodd" clip-rule="evenodd" d="M265.216 290.711C263.168 290.711 261.12 290.711 259.072 290.711C259.072 286.275 259.072 281.839 259.072 277.404C265.612 276.778 272.097 276.778 278.528 277.404C279.929 280.032 279.587 282.42 277.504 284.569C274.866 285.369 272.818 286.905 271.36 289.175C269.378 290.007 267.33 290.519 265.216 290.711Z" fill="#34D1FB"/>
<path fill-rule="evenodd" clip-rule="evenodd" d="M192.512 282.522C193.624 282.645 194.307 283.327 194.56 284.569C193.185 288.724 191.819 292.818 190.464 296.852C175.172 289.884 175.855 285.106 192.512 282.522Z" fill="#34D1FB"/>
<path fill-rule="evenodd" clip-rule="evenodd" d="M141.312 274.333C142.336 274.333 143.36 274.333 144.384 274.333C144.364 276.014 145.047 277.379 146.432 278.427C150.284 281.704 154.38 284.434 158.72 286.616C158.639 288.08 158.98 289.445 159.744 290.711C157.926 309.317 155.707 327.743 153.088 345.987C152.155 356.888 151.643 367.806 151.552 378.743C151.429 379.854 150.746 380.537 149.504 380.79C148.235 380.338 147.211 379.655 146.432 378.743C145.323 378.783 144.299 379.125 143.36 379.766C142.458 382.459 141.775 385.189 141.312 387.955C140.629 387.955 139.947 387.955 139.264 387.955C137.763 385.77 137.933 383.723 139.776 381.814C143.198 348.379 146.441 314.941 149.504 281.498C145.186 280.935 142.455 278.547 141.312 274.333Z" fill="#34D1FB"/>
<path fill-rule="evenodd" clip-rule="evenodd" d="M158.72 286.616C162.011 287.525 165.083 288.89 167.936 290.711C169.035 296.458 169.206 302.259 168.448 308.112C166.707 328.614 164.147 349.086 160.768 369.53C158.72 373.625 155.648 376.696 151.552 378.743C151.643 367.806 152.155 356.888 153.088 345.987C155.707 327.743 157.926 309.317 159.744 290.711C158.98 289.445 158.639 288.08 158.72 286.616Z" fill="#34D1FB"/>
<path fill-rule="evenodd" clip-rule="evenodd" d="M167.936 290.711C171.75 292.693 175.846 294.058 180.224 294.805C182.323 296.972 184.371 299.019 186.368 300.947C187.733 300.947 189.099 300.947 190.464 300.947C190.29 302.3 190.631 303.495 191.488 304.53C189.693 317.568 188.328 330.704 187.392 343.939C185.655 348.39 183.948 352.827 182.272 357.247C181.692 358.862 180.668 360.227 179.2 361.341C178.151 359.956 176.786 359.273 175.104 359.294C175.124 360.976 174.441 362.34 173.056 363.388C171.165 364.75 169.629 364.409 168.448 362.365C166.67 365.68 164.11 368.069 160.768 369.53C164.147 349.086 166.707 328.614 168.448 308.112C169.206 302.259 169.035 296.458 167.936 290.711Z" fill="#34D1FB"/>
<path fill-rule="evenodd" clip-rule="evenodd" d="M248.832 298.9C250.15 300.303 250.832 302.18 250.88 304.53C251.111 307.264 250.428 309.652 248.832 311.695C251.563 312.719 251.563 313.742 248.832 314.766C251.13 314.817 252.837 315.67 253.952 317.325C254.459 319.323 254.8 321.37 254.976 323.467C252.944 342.107 251.066 360.873 249.344 379.766C248.367 385.975 247.343 392.117 246.272 398.192C242.604 438.41 238.849 478.674 235.008 518.98C234.247 525.679 233.052 532.162 231.424 538.429C227.702 539.057 223.947 539.399 220.16 539.453C219.477 539.453 218.795 539.453 218.112 539.453C219.189 537.655 220.896 536.972 223.232 537.405C223.524 526.82 224.036 516.243 224.768 505.673C231.599 444.724 238.255 383.648 244.736 322.443C244.66 319.501 244.319 316.6 243.712 313.742C245.36 308.967 246.213 304.019 246.272 298.9C247.272 300.204 248.126 300.204 248.832 298.9Z" fill="#34D1FB"/>
<path fill-rule="evenodd" clip-rule="evenodd" d="M253.952 317.325C259.931 317.922 264.027 320.993 266.24 326.538C265.818 338.521 264.794 350.464 263.168 362.365C262.655 364.571 261.631 366.277 260.096 367.483C259.054 368.294 258.713 370 259.072 372.601C258.741 378.937 259.082 385.079 260.096 391.026C256.356 427.795 252.772 464.646 249.344 501.578C247.953 511.755 246.417 521.992 244.736 532.287C245.165 535.179 244.141 537.396 241.664 538.941C238.052 539.768 234.639 539.597 231.424 538.429C233.052 532.162 234.247 525.679 235.008 518.98C238.849 478.674 242.604 438.41 246.272 398.192C247.343 392.117 248.367 385.975 249.344 379.766C251.066 360.873 252.944 342.107 254.976 323.467C254.8 321.37 254.459 319.323 253.952 317.325Z" fill="#34D1FB"/>
<path fill-rule="evenodd" clip-rule="evenodd" d="M266.24 326.538C268.807 327.045 270.855 328.411 272.384 330.632C275.405 334.982 278.136 339.417 280.576 343.939C278.444 343.812 276.908 342.789 275.968 340.869C275.627 341.551 275.285 342.233 274.944 342.916C274.317 354.195 273.464 365.455 272.384 376.696C271.718 378.419 270.694 379.784 269.312 380.79C268.047 380.564 267.023 379.881 266.24 378.743C264.971 374.495 262.923 370.742 260.096 367.483C261.631 366.277 262.655 364.571 263.168 362.365C264.794 350.464 265.818 338.521 266.24 326.538Z" fill="#34D1FB"/>
<path fill-rule="evenodd" clip-rule="evenodd" d="M300.032 405.357C300.698 405.668 301.381 406.009 302.08 406.381C304.4 385.125 306.618 363.97 308.736 342.916C309.47 342.359 309.982 341.676 310.272 340.869C316.02 335.66 322.847 332.589 330.752 331.656C330.752 332.679 330.752 333.703 330.752 334.727C334.435 333.532 338.19 332.509 342.016 331.656C343.723 331.997 345.429 332.339 347.136 332.679C345.6 335.068 344.064 337.457 342.528 339.845C338.736 342.089 334.811 344.136 330.752 345.987C327.406 346.997 323.992 347.338 320.512 347.01C320.85 354.208 320.509 361.374 319.488 368.507C317.582 372.55 316.558 376.815 316.416 381.302C317.099 386.42 317.781 391.538 318.464 396.656C318.123 399.215 317.781 401.774 317.44 404.334C316.757 404.674 316.075 405.016 315.392 405.357C313.88 411.474 310.296 415.911 304.64 418.664C303.506 418.577 302.482 418.235 301.568 417.641C301.257 413.497 300.745 409.403 300.032 405.357Z" fill="#34D1FB"/>
<path fill-rule="evenodd" clip-rule="evenodd" d="M310.272 340.869C309.982 341.676 309.47 342.359 308.736 342.916C306.618 363.97 304.4 385.125 302.08 406.381C301.381 406.009 300.698 405.668 300.032 405.357C300.052 403.675 299.369 402.311 297.984 401.263C295.226 399.685 292.496 398.321 289.792 397.168C292.843 382.534 294.891 367.692 295.936 352.64C295.675 351.283 294.992 350.259 293.888 349.569C295.129 348.436 294.788 347.924 292.864 348.034C292.864 347.693 292.864 347.351 292.864 347.01C298.138 343.524 303.941 341.477 310.272 340.869Z" fill="#34D1FB"/>
<path fill-rule="evenodd" clip-rule="evenodd" d="M280.576 343.939C284.838 344.721 288.934 345.745 292.864 347.01C292.864 347.351 292.864 347.693 292.864 348.034C290.929 347.826 289.393 348.508 288.256 350.081C287.328 347.919 285.792 347.067 283.648 347.522C284.897 349.083 285.58 350.96 285.696 353.152C283.987 365.8 282.281 378.424 280.576 391.026C275.808 388.645 272.053 385.234 269.312 380.79C270.694 379.784 271.718 378.419 272.384 376.696C273.464 365.455 274.317 354.195 274.944 342.916C275.285 342.233 275.627 341.551 275.968 340.869C276.908 342.789 278.444 343.812 280.576 343.939Z" fill="#34D1FB"/>
<path fill-rule="evenodd" clip-rule="evenodd" d="M292.864 348.034C294.788 347.924 295.129 348.436 293.888 349.569C294.992 350.259 295.675 351.283 295.936 352.64C294.891 367.692 292.843 382.534 289.792 397.168C286.981 394.694 283.909 392.647 280.576 391.026C282.281 378.424 283.987 365.8 285.696 353.152C285.58 350.96 284.897 349.083 283.648 347.522C285.792 347.067 287.328 347.919 288.256 350.081C289.393 348.508 290.929 347.826 292.864 348.034Z" fill="#34D1FB"/>
<path fill-rule="evenodd" clip-rule="evenodd" d="M214.016 269.214C215.352 271.156 216.034 273.545 216.064 276.38C211.593 307.899 208.179 339.632 205.824 371.577C205.044 372.732 204.361 373.927 203.776 375.16C204.422 377.111 204.763 379.158 204.8 381.302C203.056 392.103 202.032 403.021 201.728 414.058C197.44 453.439 193.003 492.849 188.416 532.287C181.874 530.644 175.73 531.326 169.984 534.334C170.024 533.226 170.366 532.202 171.008 531.264C173.599 530.617 175.988 529.593 178.176 528.193C178.776 528.407 179.288 528.749 179.712 529.216C180.488 507.897 182.366 486.743 185.344 465.751C187.379 457.262 189.427 448.732 191.488 440.161C196.083 412.099 200.52 384.119 204.8 356.223C203.597 351.142 202.573 346.024 201.728 340.869C194.839 346.067 188.354 351.526 182.272 357.247C183.948 352.827 185.655 348.39 187.392 343.939C188.328 330.704 189.693 317.568 191.488 304.53C190.631 303.495 190.29 302.3 190.464 300.947C189.099 300.947 187.733 300.947 186.368 300.947C186.841 299.534 187.865 298.852 189.44 298.9C194.685 302.718 200.487 305.106 206.848 306.065C206.848 304.018 206.848 301.971 206.848 299.923C201.56 298.143 196.099 297.12 190.464 296.852C191.819 292.818 193.185 288.724 194.56 284.569C194.307 283.327 193.624 282.645 192.512 282.522C198.609 279.545 205.095 277.498 211.968 276.38C211.446 273.424 212.128 271.036 214.016 269.214Z" fill="#34D1FB"/>
<path fill-rule="evenodd" clip-rule="evenodd" d="M146.432 378.743C145.072 381.292 144.048 384.021 143.36 386.932C142.892 387.749 142.209 388.09 141.312 387.955C141.775 385.189 142.458 382.459 143.36 379.766C144.299 379.125 145.323 378.783 146.432 378.743Z" fill="#34D1FB"/>
<path fill-rule="evenodd" clip-rule="evenodd" d="M260.096 391.026C260.194 403.611 262.584 415.894 267.264 427.877C263.925 463.709 259.829 499.195 254.976 534.334C253.305 533.366 251.598 532.342 249.856 531.264C248.247 532.092 246.54 532.434 244.736 532.287C246.417 521.992 247.953 511.755 249.344 501.578C252.772 464.646 256.356 427.795 260.096 391.026Z" fill="#34D1FB"/>
<path fill-rule="evenodd" clip-rule="evenodd" d="M259.072 372.601C261.644 387.466 264.033 402.651 266.24 418.153C267.835 423.083 270.054 427.69 272.896 431.972C273.402 433.644 273.572 435.351 273.408 437.09C274.629 448.502 274.629 459.933 273.408 471.381C269.745 497.723 267.356 524.168 266.24 550.713C263.168 550.713 260.096 550.713 257.024 550.713C255.456 545.398 254.774 539.938 254.976 534.334C259.829 499.195 263.925 463.709 267.264 427.877C262.584 415.894 260.194 403.611 260.096 391.026C259.082 385.079 258.741 378.937 259.072 372.601Z" fill="#34D1FB"/>
<path fill-rule="evenodd" clip-rule="evenodd" d="M273.408 437.09C274.8 437.609 275.824 438.632 276.48 440.161C278.847 445.387 280.212 450.846 280.576 456.539C280.876 462.302 281.9 467.932 283.648 473.428C282.126 492.976 279.737 512.254 276.48 531.264C275.622 531.614 275.28 532.295 275.456 533.311C276.305 538.381 276.647 543.499 276.48 548.665C274.645 548.528 272.939 548.869 271.36 549.689C271.119 549.078 270.607 548.737 269.824 548.665C268.721 549.616 267.526 550.299 266.24 550.713C267.356 524.168 269.745 497.723 273.408 471.381C274.629 459.933 274.629 448.502 273.408 437.09Z" fill="#34D1FB"/>
<path fill-rule="evenodd" clip-rule="evenodd" d="M185.344 465.751C182.366 486.743 180.488 507.897 179.712 529.216C179.288 528.749 178.776 528.407 178.176 528.193C175.988 529.593 173.599 530.617 171.008 531.264C170.366 532.202 170.024 533.226 169.984 534.334C168.96 534.334 167.936 534.334 166.912 534.334C165.761 532.051 165.249 529.663 165.376 527.169C166.463 524.58 167.316 521.85 167.936 518.98C168.619 518.639 169.301 518.297 169.984 517.956C171.05 514.588 172.416 511.347 174.08 508.232C171.893 501.343 171.552 494.347 173.056 487.247C176.682 481.363 179.754 475.221 182.272 468.822C182.928 467.294 183.952 466.27 185.344 465.751Z" fill="#34D1FB"/>
<path fill-rule="evenodd" clip-rule="evenodd" d="M280.576 456.539C284.056 461.171 285.763 466.631 285.696 472.917C288.1 479.242 290.831 485.383 293.888 491.342C293.063 502.207 291.698 512.955 289.792 523.586C290.361 523.978 290.702 524.49 290.816 525.122C288.985 524.83 287.278 525.171 285.696 526.145C283.755 530.537 280.683 532.243 276.48 531.264C279.737 512.254 282.126 492.976 283.648 473.428C281.9 467.932 280.876 462.302 280.576 456.539Z" fill="#34D1FB"/>
<path fill-rule="evenodd" clip-rule="evenodd" d="M285.696 472.917C288.811 476.041 291.2 479.794 292.864 484.177C300.8 488.742 309.334 491.471 318.464 492.366C318.644 497.311 316.596 501.063 312.32 503.626C311.332 510.499 309.284 516.982 306.176 523.075C301.233 524.859 296.113 525.541 290.816 525.122C290.702 524.49 290.361 523.978 289.792 523.586C291.698 512.955 293.063 502.207 293.888 491.342C290.831 485.383 288.1 479.242 285.696 472.917Z" fill="#34D1FB"/>
<path fill-rule="evenodd" clip-rule="evenodd" d="M275.456 533.311C278.516 535.969 281.588 538.699 284.672 541.5C285.696 541.841 286.72 542.183 287.744 542.523C290.283 541.016 293.014 539.992 295.936 539.453C299.02 539.124 300.385 540.489 300.032 543.547C298.829 543.323 297.805 543.664 296.96 544.571C295.595 546.277 294.229 547.983 292.864 549.689C285.536 551.039 278.368 551.039 271.36 549.689C272.939 548.869 274.645 548.528 276.48 548.665C276.647 543.499 276.305 538.381 275.456 533.311Z" fill="#34D1FB"/>
<path fill-rule="evenodd" clip-rule="evenodd" d="M218.112 539.453C218.795 539.453 219.477 539.453 220.16 539.453C220.16 543.888 220.16 548.324 220.16 552.76C219.477 552.76 218.795 552.76 218.112 552.76C218.112 548.324 218.112 543.888 218.112 539.453Z" fill="#34D1FB"/>
</g>
</g>
<defs>
<clipPath id="clip0_1_6">
<rect width="512" height="512" fill="white"/>
</clipPath>
</defs>
</svg>
