<svg width="512" height="512" viewBox="0 0 512 512" fill="none" xmlns="http://www.w3.org/2000/svg">
<g clip-path="url(#clip0_8_4)">
<g opacity="0.431">
<path fill-rule="evenodd" clip-rule="evenodd" d="M656.476 -108C662.317 -108 668.159 -108 674 -108C672.856 -102.334 670.834 -96.9442 667.934 -91.8299C658.76 -77.4929 650.448 -62.6702 642.996 -47.362C637.601 -48.6682 633.557 -52.2617 630.864 -58.1421C621.568 -65.617 614.378 -74.6004 609.296 -85.0923C618.934 -88.2933 628.37 -92.1114 637.604 -96.5461C638.618 -97.45 639.068 -98.5729 638.952 -99.9149C645.119 -102.37 650.96 -105.065 656.476 -108Z" fill="#34D1FB"/>
<path fill-rule="evenodd" clip-rule="evenodd" d="M638.952 -99.9149C639.068 -98.5729 638.618 -97.45 637.604 -96.5461C628.37 -92.1114 618.934 -88.2933 609.296 -85.0923C614.378 -74.6004 621.568 -65.617 630.864 -58.1421C633.557 -52.2617 637.601 -48.6682 642.996 -47.362C636.937 -37.9507 631.545 -28.0688 626.82 -17.7167C622.432 -22.3216 617.714 -26.8134 612.666 -31.1918C607.874 -38.689 602.032 -45.4265 595.142 -51.4045C594.693 -52.752 594.243 -54.0995 593.794 -55.447C587.634 -60.2532 582.467 -65.8678 578.292 -72.2909C591.004 -78.3097 603.585 -84.3735 616.036 -90.4823C616.719 -92.3135 618.067 -93.661 620.08 -94.5249C626.213 -96.9804 632.503 -98.777 638.952 -99.9149Z" fill="#34D1FB"/>
<path fill-rule="evenodd" clip-rule="evenodd" d="M616.036 -90.4823C603.585 -84.3735 591.004 -78.3097 578.292 -72.2909C582.467 -65.8678 587.634 -60.2532 593.794 -55.447C594.243 -54.0995 594.693 -52.752 595.142 -51.4045C602.032 -45.4265 607.874 -38.689 612.666 -31.1918C617.714 -26.8134 622.432 -22.3216 626.82 -17.7167C622.271 -11.6917 619.124 -4.95415 617.384 2.49597C615.533 2.70713 613.735 2.4825 611.992 1.82222C606.073 -4.99444 599.333 -10.8336 591.772 -15.6954C590.758 -16.5993 590.308 -17.7222 590.424 -19.0642C590.601 -20.2452 590.152 -21.1436 589.076 -21.7592C587.444 -20.5602 585.645 -20.5602 583.684 -21.7592C580.572 -23.7471 577.65 -25.993 574.922 -28.4968C574.239 -30.5128 574.913 -32.0848 576.944 -33.2131C576.1 -34.2243 575.426 -35.3473 574.922 -36.5819C574.36 -34.8894 573.237 -33.9911 571.552 -33.8868C567.383 -38.9604 562.44 -43.0029 556.724 -46.0145C553.552 -50.5269 549.957 -54.5694 545.94 -58.1421C540.749 -59.2806 538.053 -62.4247 537.852 -67.5746C543.961 -68.5745 550.027 -69.922 556.05 -71.6172C571.552 -77.2319 587.054 -82.8464 602.556 -88.4611C606.995 -89.5736 611.488 -90.2473 616.036 -90.4823Z" fill="#34D1FB"/>
<path fill-rule="evenodd" clip-rule="evenodd" d="M590.424 -19.0642C587.818 -18.7562 585.571 -17.6333 583.684 -15.6954C575.107 -6.8117 567.019 2.39639 559.42 11.9286C558.184 12.7737 556.836 13.223 555.376 13.2761C553.977 11.1087 554.876 9.76122 558.072 9.23353C559.099 7.71314 559.998 6.14113 560.768 4.51724C555.625 0.353026 550.684 -4.13863 545.94 -8.95788C548.397 -11.1919 550.645 -13.6623 552.68 -16.3692C552.064 -17.4438 551.165 -17.8931 549.984 -17.7167C556.472 -23.8448 563.661 -29.2348 571.552 -33.8868C573.237 -33.9911 574.36 -34.8894 574.922 -36.5819C575.426 -35.3473 576.1 -34.2243 576.944 -33.2131C574.913 -32.0848 574.239 -30.5128 574.922 -28.4968C577.65 -25.993 580.572 -23.7471 583.684 -21.7592C585.645 -20.5602 587.444 -20.5602 589.076 -21.7592C590.152 -21.1436 590.601 -20.2452 590.424 -19.0642Z" fill="#34D1FB"/>
<path fill-rule="evenodd" clip-rule="evenodd" d="M549.984 -17.7167C551.165 -17.8931 552.064 -17.4438 552.68 -16.3692C550.645 -13.6623 548.397 -11.1919 545.94 -8.95788C550.684 -4.13863 555.625 0.353026 560.768 4.51724C559.998 6.14113 559.099 7.71314 558.072 9.23353C554.876 9.76122 553.977 11.1087 555.376 13.2761C554.848 15.5384 554.174 17.7842 553.354 20.0136C549.28 22.9621 545.91 26.5558 543.244 30.7937C542.008 31.6386 540.66 32.0887 539.2 32.1412C539.052 29.0366 537.704 25.8926 535.156 22.7086C530.977 18.1425 526.484 13.8753 521.676 9.90728C525.12 6.94464 525.12 5.37264 521.676 5.19099C524.097 2.8028 526.344 0.10778 528.416 -2.89407C535.683 -7.86167 542.872 -12.8025 549.984 -17.7167Z" fill="#34D1FB"/>
<path fill-rule="evenodd" clip-rule="evenodd" d="M404.4 13.2761C404.516 14.6181 404.066 15.7409 403.052 16.6448C405.493 20.6577 408.638 24.0265 412.488 26.7512C413.541 28.4073 414.215 30.2035 414.51 32.1412C433.502 52.6733 452.149 73.336 470.452 94.1268C470.921 98.048 472.943 100.743 476.518 102.212C478.01 100.579 478.684 101.027 478.54 103.559C476.049 106.214 473.353 108.909 470.452 111.644C468.655 113.441 466.857 113.441 465.06 111.644C461.821 107.512 457.777 104.368 452.928 102.212C446.051 94.3181 438.862 86.6831 431.36 79.3041C423.226 74.3116 416.486 68.0228 411.14 60.439C410.647 58.8287 409.524 57.9313 407.77 57.744C405.861 59.1898 404.063 59.1898 402.378 57.744C401.963 58.8327 401.289 59.7315 400.356 60.439C394.387 52.5547 388.097 44.9197 381.484 37.5313C388.308 28.4706 395.947 20.3851 404.4 13.2761Z" fill="#34D1FB"/>
<path fill-rule="evenodd" clip-rule="evenodd" d="M409.792 7.88602C429.388 19.3912 448.26 31.9674 466.408 45.6163C468.644 49.1724 471.115 49.1724 473.822 45.6163C483.383 55.3979 492.594 65.2792 501.456 75.2616C499.933 77.7868 498.585 80.4819 497.412 83.3467C490.65 89.6571 484.359 96.3946 478.54 103.559C478.684 101.027 478.01 100.579 476.518 102.212C472.943 100.743 470.921 98.048 470.452 94.1268C452.149 73.336 433.502 52.6733 414.51 32.1412C414.215 30.2035 413.541 28.4073 412.488 26.7512C408.638 24.0265 405.493 20.6577 403.052 16.6448C404.066 15.7409 404.516 14.6181 404.4 13.2761C404.849 10.1319 406.647 8.33515 409.792 7.88602Z" fill="#34D1FB"/>
<path fill-rule="evenodd" clip-rule="evenodd" d="M521.676 5.19099C525.12 5.37264 525.12 6.94464 521.676 9.90728C526.484 13.8753 530.977 18.1425 535.156 22.7086C537.704 25.8926 539.052 29.0366 539.2 32.1412C534.017 41.3798 527.277 49.4648 518.98 56.3964C514.462 64.053 508.619 70.3418 501.456 75.2616C492.594 65.2792 483.383 55.3979 473.822 45.6163C471.115 49.1724 468.644 49.1724 466.408 45.6163C470.1 41.9956 474.593 39.3006 479.888 37.5313C481.173 34.8969 482.971 32.6506 485.28 30.7937C497.471 22.1776 509.603 13.6434 521.676 5.19099Z" fill="#34D1FB"/>
<path fill-rule="evenodd" clip-rule="evenodd" d="M380.136 30.7937C379.409 33.4955 378.512 36.1905 377.44 38.8788C370.933 44.7149 365.091 51.2274 359.916 58.4177C364.048 65.922 369.44 72.4345 376.092 77.9566C377.098 79.6222 377.546 81.4197 377.44 83.3467C379.687 83.3467 381.933 83.3467 384.18 83.3467C376.978 89.653 370.688 96.8407 365.308 104.907C362.84 105.651 360.594 105.651 358.568 104.907C351.387 96.6345 344.647 88.0994 338.348 79.3041C340.544 75.0918 343.464 71.498 347.11 68.5241C349.255 65.2536 350.379 61.6612 350.48 57.744C361.26 49.6589 371.145 40.6764 380.136 30.7937Z" fill="#34D1FB"/>
<path fill-rule="evenodd" clip-rule="evenodd" d="M409.792 7.88602C406.647 8.33515 404.849 10.1319 404.4 13.2761C395.947 20.3851 388.308 28.4706 381.484 37.5313C388.097 44.9197 394.387 52.5547 400.356 60.439C401.289 59.7315 401.963 58.8327 402.378 57.744C404.063 59.1898 405.861 59.1898 407.77 57.744C409.524 57.9313 410.647 58.8287 411.14 60.439C409.199 59.2761 407.401 59.2761 405.748 60.439C398.237 67.8611 391.048 75.4974 384.18 83.3467C381.933 83.3467 379.687 83.3467 377.44 83.3467C377.546 81.4197 377.098 79.6222 376.092 77.9566C369.44 72.4345 364.048 65.922 359.916 58.4177C365.091 51.2274 370.933 44.7149 377.44 38.8788C378.512 36.1905 379.409 33.4955 380.136 30.7937C388.159 22.7733 396.247 14.6883 404.4 6.53851C405.299 6.08939 406.197 5.64012 407.096 5.19099C408.731 5.5241 409.63 6.42236 409.792 7.88602Z" fill="#34D1FB"/>
<path fill-rule="evenodd" clip-rule="evenodd" d="M350.48 57.744C350.379 61.6612 349.255 65.2536 347.11 68.5241C343.464 71.498 340.544 75.0918 338.348 79.3041C344.647 88.0994 351.387 96.6345 358.568 104.907C360.594 105.651 362.84 105.651 365.308 104.907C355.4 113.465 345.964 122.449 337 131.857C334.955 131.842 333.382 130.945 332.282 129.162C326.997 121.177 320.705 113.99 313.41 107.602C312.511 105.356 312.511 103.111 313.41 100.864C315.691 98.3593 317.713 95.6643 319.476 92.7793C318.842 91.4816 317.943 91.4816 316.78 92.7793C327.494 80.719 338.727 69.0415 350.48 57.744Z" fill="#34D1FB"/>
<path fill-rule="evenodd" clip-rule="evenodd" d="M279.036 87.3892C273.977 89.9724 269.933 93.7899 266.904 98.8431C283.244 116.566 298.746 134.757 313.41 153.417C315.238 152.231 317.26 151.781 319.476 152.07C314.084 158.359 308.243 164.197 301.952 169.587C288.541 154.377 275.061 139.105 261.512 123.772C258.828 119.738 256.132 115.695 253.424 111.644C253.463 109.584 254.362 108.012 256.12 106.928C255.671 106.479 255.221 106.029 254.772 105.581C258.635 103.966 261.108 101.046 262.186 96.8218C263.418 98.3768 264.541 98.1518 265.556 96.148C264.542 95.2439 264.092 94.1214 264.208 92.7793C267.044 91.0828 269.74 89.0615 272.296 86.7155C274.675 85.8531 276.922 86.0781 279.036 87.3892Z" fill="#34D1FB"/>
<path fill-rule="evenodd" clip-rule="evenodd" d="M279.036 87.3892C284.323 93.2091 289.715 99.0492 295.212 104.907C297.908 106.703 300.604 106.703 303.3 104.907C307.48 100.267 311.973 96.2249 316.78 92.7793C317.943 91.4816 318.842 91.4816 319.476 92.7793C317.713 95.6643 315.691 98.3593 313.41 100.864C312.511 103.111 312.511 105.356 313.41 107.602C320.705 113.99 326.997 121.177 332.282 129.162C333.382 130.945 334.955 131.842 337 131.857C331.402 138.654 325.56 145.392 319.476 152.07C317.26 151.781 315.238 152.231 313.41 153.417C298.746 134.757 283.244 116.566 266.904 98.8431C269.933 93.7899 273.977 89.9724 279.036 87.3892Z" fill="#34D1FB"/>
<path fill-rule="evenodd" clip-rule="evenodd" d="M264.208 92.7793C264.092 94.1214 264.542 95.2439 265.556 96.148C264.541 98.1518 263.418 98.3768 262.186 96.8218C261.108 101.046 258.635 103.966 254.772 105.581C255.221 106.029 255.671 106.479 256.12 106.928C254.362 108.012 253.463 109.584 253.424 111.644C256.132 115.695 258.828 119.738 261.512 123.772C275.061 139.105 288.541 154.377 301.952 169.587C299.392 173.495 295.797 175.74 291.168 176.325C291.521 174.333 291.072 172.537 289.82 170.935C287.185 169.651 284.938 167.853 283.08 165.545C278.996 159.888 275.177 154.048 271.622 148.027C265.482 152.508 259.865 157.674 254.772 163.524C251.859 164.312 249.163 165.434 246.684 166.892C240.977 160.508 234.911 154.219 228.486 148.027C227.793 144.621 226.221 141.701 223.768 139.268C228.014 135.293 230.71 130.577 231.856 125.12C241.741 113.441 252.525 102.661 264.208 92.7793Z" fill="#34D1FB"/>
<path fill-rule="evenodd" clip-rule="evenodd" d="M231.856 125.12C230.71 130.577 228.014 135.293 223.768 139.268C226.221 141.701 227.793 144.621 228.486 148.027C234.911 154.219 240.977 160.508 246.684 166.892C246.8 168.235 246.35 169.357 245.336 170.261C235.621 177.96 225.735 185.371 215.68 192.495C216.183 187.803 214.835 183.761 211.636 180.368C207.143 174.977 202.2 170.036 196.808 165.545C199.314 162.362 199.764 159.218 198.156 156.112C210.253 146.701 221.486 136.37 231.856 125.12Z" fill="#34D1FB"/>
<path fill-rule="evenodd" clip-rule="evenodd" d="M198.156 156.112C199.764 159.218 199.314 162.362 196.808 165.545C202.2 170.036 207.143 174.977 211.636 180.368C214.835 183.761 216.183 187.803 215.68 192.495C209.406 196.834 203.566 201.774 198.156 207.318C192.854 207.904 189.708 205.209 188.72 199.233C182.802 193.771 177.41 187.931 172.544 181.715C181.081 173.181 189.619 164.646 198.156 156.112Z" fill="#34D1FB"/>
<path fill-rule="evenodd" clip-rule="evenodd" d="M172.544 181.715C177.41 187.931 182.802 193.771 188.72 199.233C189.708 205.209 192.854 207.904 198.156 207.318C185.75 216.882 173.168 226.54 160.412 236.289C161.225 238.748 162.124 241.22 163.108 243.701C167.969 247.145 172.238 251.187 175.914 255.828C178.144 254.275 180.166 252.477 181.98 250.438C183.011 251.937 184.359 252.835 186.024 253.133C187.528 258.681 191.124 261.825 196.808 262.566C192.776 306.59 188.507 350.608 184.002 394.622C181.576 397.135 181.352 399.83 183.328 402.707C180.744 401.486 178.498 399.69 176.588 397.317C172.122 374.308 168.527 351.177 165.804 327.92C166.597 309.644 169.742 291.901 175.24 274.693C172.993 271.998 170.747 269.303 168.5 266.608C162.915 265.432 158.197 262.737 154.346 258.523C152.874 259.596 151.301 260.495 149.628 261.218C145.007 259.554 140.738 257.309 136.822 254.481C121.939 266.344 106.886 278.247 91.664 290.19C108.756 290.415 125.831 291.089 142.888 292.211C143.787 293.11 144.685 294.007 145.584 294.906C143.717 296.322 142.369 298.119 141.54 300.296C137.158 300.907 134.012 303.151 132.104 307.034C98.1816 328.707 64.9309 351.39 32.352 375.083C36.3041 376.367 40.3481 377.041 44.484 377.104C44.8494 380.232 43.9509 382.927 41.788 385.189C27.7901 387.701 13.8607 390.396 0 393.274C0 387.884 0 382.494 0 377.104C4.00774 367.284 8.05174 357.401 12.132 347.459C14.6803 347.185 16.7023 348.083 18.198 350.154C18.7547 353.835 19.6534 357.429 20.894 360.934C37.2461 347.285 53.1975 333.136 68.748 318.488C58.3077 317.426 47.9732 318.099 37.744 320.509C32.0899 321.234 29.6187 318.989 30.33 313.771C36.8453 307.259 43.3607 300.745 49.876 294.232C53.9918 290.366 58.4851 286.998 63.356 284.126C72.3857 275.55 80.923 266.567 88.968 257.176C93.6048 253.187 98.5474 249.593 103.796 246.396C125.382 225.536 146.95 204.425 168.5 183.063C169.612 181.869 170.96 181.42 172.544 181.715Z" fill="#34D1FB"/>
<path fill-rule="evenodd" clip-rule="evenodd" d="M311.388 210.013C311.577 214.869 313.824 219.135 318.128 222.814C317.054 226.518 317.054 229.887 318.128 232.92C317.229 232.92 316.331 232.92 315.432 232.92C313.883 233.313 312.984 234.435 312.736 236.289C313.104 239.188 314.002 241.883 315.432 244.374C302.975 356.195 291.517 468.262 281.058 580.579C279.772 588.751 278.424 596.836 277.014 604.834C275.996 609.894 276.22 614.835 277.688 619.656C272.745 619.656 267.803 619.656 262.86 619.656C262.946 614.644 263.62 609.704 264.882 604.834C268.466 602.732 270.039 599.588 269.6 595.401C267.643 594.32 265.397 593.647 262.86 593.38C265.015 590.973 266.14 588.053 266.23 584.621C278.721 459.352 291.527 334.484 304.648 210.013C306.895 208.217 309.141 208.217 311.388 210.013Z" fill="#34D1FB"/>
<path fill-rule="evenodd" clip-rule="evenodd" d="M311.388 210.013C315.493 214.791 320.211 218.834 325.542 222.14C328.942 219.227 332.761 218.778 337 220.793C343.416 225.769 349.706 230.711 355.872 235.616C351.445 237.175 346.951 237.4 342.392 236.289C338.961 233.028 334.917 231.007 330.26 230.225C326.256 231.473 322.212 232.371 318.128 232.92C317.054 229.887 317.054 226.518 318.128 222.814C313.824 219.135 311.577 214.869 311.388 210.013Z" fill="#34D1FB"/>
<path fill-rule="evenodd" clip-rule="evenodd" d="M304.648 210.013C291.527 334.484 278.721 459.352 266.23 584.621C266.14 588.053 265.015 590.973 262.86 593.38C265.397 593.647 267.643 594.32 269.6 595.401C261.821 596.227 254.632 595.328 248.032 592.706C254.07 540.789 259.911 488.91 265.556 437.069C265.956 422.54 267.304 408.167 269.6 393.948C269.551 391.126 269.103 388.431 268.252 385.863C269.022 384.239 269.921 382.667 270.948 381.147C274.048 339.094 278.543 297.321 284.428 255.828C284.389 252.097 283.491 248.952 281.732 246.396C284.241 237.324 288.06 228.79 293.19 220.793C297.276 217.38 301.095 213.786 304.648 210.013Z" fill="#34D1FB"/>
<path fill-rule="evenodd" clip-rule="evenodd" d="M315.432 232.92C318.067 239.535 320.314 246.273 322.172 253.133C328.695 254.095 334.986 255.443 341.044 257.176C341.044 263.014 341.044 268.855 341.044 274.693C343.74 274.693 346.436 274.693 349.132 274.693C341.926 277.946 334.737 281.54 327.564 285.473C326.635 287.19 325.511 287.19 324.194 285.473C324.116 292.212 322.993 298.726 320.824 305.012C321.623 308.775 322.072 312.594 322.172 316.466C313.641 397.037 304.879 477.437 295.886 557.671C294.922 571.585 294.248 585.509 293.864 599.444C290.789 598.874 288.542 599.772 287.124 602.139C287.124 607.978 287.124 613.818 287.124 619.656C283.979 619.656 280.833 619.656 277.688 619.656C276.22 614.835 275.996 609.894 277.014 604.834C278.424 596.836 279.772 588.751 281.058 580.579C291.517 468.262 302.975 356.195 315.432 244.374C314.002 241.883 313.104 239.188 312.736 236.289C312.984 234.435 313.883 233.313 315.432 232.92Z" fill="#34D1FB"/>
<path fill-rule="evenodd" clip-rule="evenodd" d="M349.132 274.693C346.436 274.693 343.74 274.693 341.044 274.693C341.044 268.855 341.044 263.014 341.044 257.176C349.654 256.352 358.191 256.352 366.656 257.176C368.5 260.636 368.05 263.78 365.308 266.608C361.836 267.662 359.14 269.683 357.22 272.672C354.61 273.768 351.914 274.441 349.132 274.693Z" fill="#34D1FB"/>
<path fill-rule="evenodd" clip-rule="evenodd" d="M253.424 263.913C254.888 264.075 255.787 264.974 256.12 266.608C254.31 272.078 252.511 277.468 250.728 282.778C230.597 273.605 231.496 267.316 253.424 263.913Z" fill="#34D1FB"/>
<path fill-rule="evenodd" clip-rule="evenodd" d="M186.024 253.133C187.372 253.133 188.72 253.133 190.068 253.133C190.041 255.347 190.94 257.143 192.764 258.523C197.835 262.837 203.227 266.43 208.94 269.303C208.834 271.23 209.282 273.028 210.288 274.693C207.895 299.187 204.974 323.442 201.526 347.459C200.298 361.81 199.624 376.183 199.504 390.579C199.342 392.043 198.443 392.942 196.808 393.274C195.138 392.679 193.79 391.78 192.764 390.579C191.304 390.632 189.956 391.082 188.72 391.927C187.532 395.471 186.633 399.065 186.024 402.707C185.125 402.707 184.227 402.707 183.328 402.707C181.352 399.83 181.576 397.135 184.002 394.622C188.507 350.608 192.776 306.59 196.808 262.566C191.124 261.825 187.528 258.681 186.024 253.133Z" fill="#34D1FB"/>
<path fill-rule="evenodd" clip-rule="evenodd" d="M208.94 269.303C213.272 270.5 217.316 272.296 221.072 274.693C222.518 282.26 222.744 289.896 221.746 297.601C219.454 324.589 216.084 351.539 211.636 378.452C208.94 383.842 204.896 387.884 199.504 390.579C199.624 376.183 200.298 361.81 201.526 347.459C204.974 323.442 207.895 299.187 210.288 274.693C209.282 273.028 208.834 271.23 208.94 269.303Z" fill="#34D1FB"/>
<path fill-rule="evenodd" clip-rule="evenodd" d="M221.072 274.693C226.093 277.304 231.485 279.1 237.248 280.083C240.011 282.936 242.707 285.631 245.336 288.168C247.133 288.168 248.931 288.168 250.728 288.168C250.499 289.95 250.948 291.522 252.076 292.885C249.713 310.048 247.916 327.341 246.684 344.764C244.398 350.623 242.151 356.463 239.944 362.282C239.181 364.408 237.833 366.206 235.9 367.672C234.52 365.848 232.723 364.95 230.508 364.977C230.535 367.191 229.636 368.987 227.812 370.367C225.322 372.159 223.3 371.71 221.746 369.019C219.406 373.384 216.036 376.529 211.636 378.452C216.084 351.539 219.454 324.589 221.746 297.601C222.744 289.896 222.518 282.26 221.072 274.693Z" fill="#34D1FB"/>
<path fill-rule="evenodd" clip-rule="evenodd" d="M327.564 285.473C329.299 287.321 330.197 289.792 330.26 292.885C330.565 296.484 329.666 299.628 327.564 302.317C331.159 303.665 331.159 305.012 327.564 306.36C330.589 306.427 332.836 307.55 334.304 309.729C334.971 312.359 335.42 315.054 335.652 317.814C332.978 342.352 330.505 367.056 328.238 391.927C326.952 400.1 325.604 408.185 324.194 416.182C319.365 469.126 314.422 522.129 309.366 575.188C308.364 584.007 306.791 592.542 304.648 600.791C299.748 601.619 294.805 602.069 289.82 602.139C288.921 602.139 288.023 602.139 287.124 602.139C288.542 599.772 290.789 598.874 293.864 599.444C294.248 585.509 294.922 571.585 295.886 557.671C304.879 477.437 313.641 397.037 322.172 316.466C322.072 312.594 321.623 308.775 320.824 305.012C322.993 298.726 324.116 292.212 324.194 285.473C325.511 287.19 326.635 287.19 327.564 285.473Z" fill="#34D1FB"/>
<path fill-rule="evenodd" clip-rule="evenodd" d="M334.304 309.729C342.175 310.514 347.567 314.557 350.48 321.856C349.925 337.632 348.577 353.353 346.436 369.019C345.761 371.923 344.413 374.169 342.392 375.757C341.02 376.824 340.571 379.07 341.044 382.494C340.609 390.835 341.057 398.92 342.392 406.75C337.469 455.152 332.751 503.663 328.238 552.281C326.407 565.678 324.385 579.153 322.172 592.706C322.737 596.513 321.389 599.432 318.128 601.465C313.374 602.554 308.881 602.329 304.648 600.791C306.791 592.542 308.364 584.007 309.366 575.188C314.422 522.129 319.365 469.126 324.194 416.182C325.604 408.185 326.952 400.1 328.238 391.927C330.505 367.056 332.978 342.352 335.652 317.814C335.42 315.054 334.971 312.359 334.304 309.729Z" fill="#34D1FB"/>
<path fill-rule="evenodd" clip-rule="evenodd" d="M350.48 321.856C353.859 322.525 356.555 324.322 358.568 327.246C362.545 332.972 366.14 338.811 369.352 344.764C366.545 344.597 364.523 343.249 363.286 340.721C362.837 341.62 362.387 342.518 361.938 343.416C361.113 358.265 359.99 373.087 358.568 387.884C357.692 390.154 356.344 391.95 354.524 393.274C352.859 392.977 351.511 392.078 350.48 390.579C348.81 384.987 346.114 380.047 342.392 375.757C344.413 374.169 345.761 371.923 346.436 369.019C348.577 353.353 349.925 337.632 350.48 321.856Z" fill="#34D1FB"/>
<path fill-rule="evenodd" clip-rule="evenodd" d="M394.964 425.615C395.84 426.024 396.739 426.473 397.66 426.962C400.715 398.981 403.634 371.132 406.422 343.416C407.389 342.683 408.063 341.785 408.444 340.721C416.01 333.865 424.997 329.823 435.404 328.594C435.404 329.941 435.404 331.289 435.404 332.636C440.253 331.064 445.196 329.716 450.232 328.594C452.479 329.043 454.725 329.493 456.972 329.941C454.95 333.085 452.928 336.23 450.906 339.374C445.914 342.328 440.747 345.023 435.404 347.459C430.999 348.789 426.505 349.238 421.924 348.807C422.369 358.282 421.92 367.715 420.576 377.104C418.067 382.427 416.719 388.042 416.532 393.948C417.431 400.686 418.329 407.423 419.228 414.161C418.779 417.53 418.329 420.898 417.88 424.267C416.981 424.716 416.083 425.166 415.184 425.615C413.193 433.667 408.475 439.508 401.03 443.132C399.538 443.018 398.19 442.568 396.986 441.785C396.576 436.33 395.902 430.94 394.964 425.615Z" fill="#34D1FB"/>
<path fill-rule="evenodd" clip-rule="evenodd" d="M408.444 340.721C408.063 341.785 407.389 342.683 406.422 343.416C403.634 371.132 400.715 398.981 397.66 426.962C396.739 426.473 395.84 426.024 394.964 425.615C394.991 423.401 394.092 421.604 392.268 420.225C388.638 418.148 385.044 416.352 381.484 414.835C385.5 395.571 388.196 376.032 389.572 356.218C389.228 354.431 388.329 353.084 386.876 352.175C388.51 350.684 388.061 350.01 385.528 350.154C385.528 349.705 385.528 349.255 385.528 348.807C392.47 344.217 400.109 341.522 408.444 340.721Z" fill="#34D1FB"/>
<path fill-rule="evenodd" clip-rule="evenodd" d="M369.352 344.764C374.962 345.793 380.354 347.141 385.528 348.807C385.528 349.255 385.528 349.705 385.528 350.154C382.98 349.881 380.958 350.778 379.462 352.849C378.241 350.003 376.219 348.881 373.396 349.48C375.041 351.535 375.94 354.007 376.092 356.892C373.842 373.541 371.596 390.16 369.352 406.75C363.076 403.615 358.133 399.124 354.524 393.274C356.344 391.95 357.692 390.154 358.568 387.884C359.99 373.087 361.113 358.265 361.938 343.416C362.387 342.518 362.837 341.62 363.286 340.721C364.523 343.249 366.545 344.597 369.352 344.764Z" fill="#34D1FB"/>
<path fill-rule="evenodd" clip-rule="evenodd" d="M385.528 350.154C388.061 350.01 388.51 350.684 386.876 352.175C388.329 353.084 389.228 354.431 389.572 356.218C388.196 376.032 385.5 395.571 381.484 414.835C377.784 411.578 373.74 408.883 369.352 406.75C371.596 390.16 373.842 373.541 376.092 356.892C375.94 354.007 375.041 351.535 373.396 349.48C376.219 348.881 378.241 350.003 379.462 352.849C380.958 350.778 382.98 349.881 385.528 350.154Z" fill="#34D1FB"/>
<path fill-rule="evenodd" clip-rule="evenodd" d="M281.732 246.396C283.491 248.952 284.389 252.097 284.428 255.828C278.543 297.321 274.048 339.094 270.948 381.147C269.921 382.667 269.022 384.239 268.252 385.863C269.103 388.431 269.551 391.126 269.6 393.948C267.304 408.167 265.956 422.54 265.556 437.069C259.911 488.91 254.07 540.789 248.032 592.706C239.42 590.543 231.332 591.441 223.768 595.401C223.821 593.942 224.271 592.594 225.116 591.359C228.526 590.507 231.671 589.16 234.552 587.316C235.342 587.598 236.016 588.048 236.574 588.664C237.596 560.599 240.068 532.751 243.988 505.118C246.666 493.943 249.362 482.714 252.076 471.43C258.124 434.489 263.965 397.657 269.6 360.934C268.016 354.245 266.668 347.508 265.556 340.721C256.487 347.564 247.95 354.75 239.944 362.282C242.151 356.463 244.398 350.623 246.684 344.764C247.916 327.341 249.713 310.048 252.076 292.885C250.948 291.522 250.499 289.95 250.728 288.168C248.931 288.168 247.133 288.168 245.336 288.168C245.959 286.309 247.307 285.41 249.38 285.473C256.284 290.5 263.922 293.643 272.296 294.906C272.296 292.211 272.296 289.516 272.296 286.821C265.335 284.478 258.146 283.13 250.728 282.778C252.511 277.468 254.31 272.078 256.12 266.608C255.787 264.974 254.888 264.075 253.424 263.913C261.45 259.995 269.988 257.3 279.036 255.828C278.349 251.937 279.246 248.793 281.732 246.396Z" fill="#34D1FB"/>
<path fill-rule="evenodd" clip-rule="evenodd" d="M192.764 390.579C190.974 393.935 189.626 397.527 188.72 401.359C188.104 402.435 187.205 402.884 186.024 402.707C186.633 399.065 187.532 395.471 188.72 391.927C189.956 391.082 191.304 390.632 192.764 390.579Z" fill="#34D1FB"/>
<path fill-rule="evenodd" clip-rule="evenodd" d="M342.392 406.75C342.521 423.316 345.668 439.486 351.828 455.26C347.432 502.43 342.04 549.144 335.652 595.401C333.452 594.126 331.205 592.779 328.912 591.359C326.794 592.449 324.547 592.899 322.172 592.706C324.385 579.153 326.407 565.678 328.238 552.281C332.751 503.663 337.469 455.152 342.392 406.75Z" fill="#34D1FB"/>
<path fill-rule="evenodd" clip-rule="evenodd" d="M341.044 382.494C344.43 402.063 347.575 422.052 350.48 442.459C352.58 448.95 355.501 455.013 359.242 460.65C359.908 462.852 360.132 465.098 359.916 467.388C361.523 482.411 361.523 497.459 359.916 512.529C355.094 547.206 351.949 582.018 350.48 616.961C346.436 616.961 342.392 616.961 338.348 616.961C336.284 609.965 335.386 602.777 335.652 595.401C342.04 549.144 347.432 502.43 351.828 455.26C345.668 439.486 342.521 423.316 342.392 406.75C341.057 398.92 340.609 390.835 341.044 382.494Z" fill="#34D1FB"/>
<path fill-rule="evenodd" clip-rule="evenodd" d="M359.916 467.388C361.748 468.071 363.096 469.418 363.96 471.43C367.077 478.31 368.873 485.497 369.352 492.99C369.747 500.577 371.095 507.988 373.396 515.224C371.393 540.956 368.248 566.334 363.96 591.359C362.83 591.82 362.38 592.717 362.612 594.054C363.73 600.728 364.18 607.465 363.96 614.266C361.544 614.086 359.299 614.535 357.22 615.614C356.903 614.809 356.229 614.361 355.198 614.266C353.746 615.518 352.173 616.417 350.48 616.961C351.949 582.018 355.094 547.206 359.916 512.529C361.523 497.459 361.523 482.411 359.916 467.388Z" fill="#34D1FB"/>
<path fill-rule="evenodd" clip-rule="evenodd" d="M243.988 505.118C240.068 532.751 237.596 560.599 236.574 588.664C236.016 588.048 235.342 587.598 234.552 587.316C231.671 589.16 228.526 590.507 225.116 591.359C224.271 592.594 223.821 593.942 223.768 595.401C222.42 595.401 221.072 595.401 219.724 595.401C218.209 592.395 217.535 589.251 217.702 585.969C219.134 582.561 220.256 578.967 221.072 575.188C221.971 574.74 222.869 574.29 223.768 573.841C225.171 569.406 226.97 565.14 229.16 561.04C226.281 551.971 225.832 542.762 227.812 533.416C232.585 525.669 236.629 517.584 239.944 509.16C240.808 507.149 242.156 505.801 243.988 505.118Z" fill="#34D1FB"/>
<path fill-rule="evenodd" clip-rule="evenodd" d="M369.352 492.99C373.933 499.088 376.18 506.275 376.092 514.55C379.257 522.877 382.852 530.962 386.876 538.806C385.79 553.108 383.993 567.257 381.484 581.252C382.234 581.768 382.682 582.442 382.832 583.274C380.422 582.89 378.175 583.338 376.092 584.621C373.536 590.402 369.492 592.648 363.96 591.359C368.248 566.334 371.393 540.956 373.396 515.224C371.095 507.988 369.747 500.577 369.352 492.99Z" fill="#34D1FB"/>
<path fill-rule="evenodd" clip-rule="evenodd" d="M376.092 514.55C380.193 518.663 383.338 523.604 385.528 529.373C395.975 535.383 407.209 538.975 419.228 540.153C419.465 546.663 416.769 551.603 411.14 554.976C409.839 564.024 407.143 572.558 403.052 580.579C396.545 582.927 389.805 583.826 382.832 583.274C382.682 582.442 382.234 581.768 381.484 581.252C383.993 567.257 385.79 553.108 386.876 538.806C382.852 530.962 379.257 522.877 376.092 514.55Z" fill="#34D1FB"/>
<path fill-rule="evenodd" clip-rule="evenodd" d="M362.612 594.054C366.64 597.553 370.684 601.147 374.744 604.834C376.092 605.282 377.44 605.733 378.788 606.181C382.13 604.196 385.725 602.849 389.572 602.139C393.632 601.706 395.429 603.502 394.964 607.529C393.38 607.234 392.032 607.682 390.92 608.876C389.123 611.123 387.325 613.368 385.528 615.614C375.882 617.391 366.446 617.391 357.22 615.614C359.299 614.535 361.544 614.086 363.96 614.266C364.18 607.465 363.73 600.728 362.612 594.054Z" fill="#34D1FB"/>
<path fill-rule="evenodd" clip-rule="evenodd" d="M287.124 602.139C288.023 602.139 288.921 602.139 289.82 602.139C289.82 607.978 289.82 613.818 289.82 619.656C288.921 619.656 288.023 619.656 287.124 619.656C287.124 613.818 287.124 607.978 287.124 602.139Z" fill="#34D1FB"/>
</g>
<g opacity="0.431">
<path fill-rule="evenodd" clip-rule="evenodd" d="M656.476 -108C662.317 -108 668.159 -108 674 -108C672.856 -102.334 670.834 -96.9442 667.934 -91.8299C658.76 -77.4929 650.448 -62.6702 642.996 -47.362C637.601 -48.6682 633.557 -52.2617 630.864 -58.1421C621.568 -65.617 614.378 -74.6004 609.296 -85.0923C618.934 -88.2933 628.37 -92.1114 637.604 -96.5461C638.618 -97.45 639.068 -98.5729 638.952 -99.9149C645.119 -102.37 650.96 -105.065 656.476 -108Z" fill="#34D1FB"/>
<path fill-rule="evenodd" clip-rule="evenodd" d="M638.952 -99.9149C639.068 -98.5729 638.618 -97.45 637.604 -96.5461C628.37 -92.1114 618.934 -88.2933 609.296 -85.0923C614.378 -74.6004 621.568 -65.617 630.864 -58.1421C633.557 -52.2617 637.601 -48.6682 642.996 -47.362C636.937 -37.9507 631.545 -28.0688 626.82 -17.7167C622.432 -22.3216 617.714 -26.8134 612.666 -31.1918C607.874 -38.689 602.032 -45.4265 595.142 -51.4045C594.693 -52.752 594.243 -54.0995 593.794 -55.447C587.634 -60.2532 582.467 -65.8678 578.292 -72.2909C591.004 -78.3097 603.585 -84.3735 616.036 -90.4823C616.719 -92.3135 618.067 -93.661 620.08 -94.5249C626.213 -96.9804 632.503 -98.777 638.952 -99.9149Z" fill="#34D1FB"/>
<path fill-rule="evenodd" clip-rule="evenodd" d="M616.036 -90.4823C603.585 -84.3735 591.004 -78.3097 578.292 -72.2909C582.467 -65.8678 587.634 -60.2532 593.794 -55.447C594.243 -54.0995 594.693 -52.752 595.142 -51.4045C602.032 -45.4265 607.874 -38.689 612.666 -31.1918C617.714 -26.8134 622.432 -22.3216 626.82 -17.7167C622.271 -11.6917 619.124 -4.95415 617.384 2.49597C615.533 2.70713 613.735 2.4825 611.992 1.82222C606.073 -4.99444 599.333 -10.8336 591.772 -15.6954C590.758 -16.5993 590.308 -17.7222 590.424 -19.0642C590.601 -20.2452 590.152 -21.1436 589.076 -21.7592C587.444 -20.5602 585.645 -20.5602 583.684 -21.7592C580.572 -23.7471 577.65 -25.993 574.922 -28.4968C574.239 -30.5128 574.913 -32.0848 576.944 -33.2131C576.1 -34.2243 575.426 -35.3473 574.922 -36.5819C574.36 -34.8894 573.237 -33.9911 571.552 -33.8868C567.383 -38.9604 562.44 -43.0029 556.724 -46.0145C553.552 -50.5269 549.957 -54.5694 545.94 -58.1421C540.749 -59.2806 538.053 -62.4247 537.852 -67.5746C543.961 -68.5745 550.027 -69.922 556.05 -71.6172C571.552 -77.2319 587.054 -82.8464 602.556 -88.4611C606.995 -89.5736 611.488 -90.2473 616.036 -90.4823Z" fill="#34D1FB"/>
<path fill-rule="evenodd" clip-rule="evenodd" d="M590.424 -19.0642C587.818 -18.7562 585.571 -17.6333 583.684 -15.6954C575.107 -6.8117 567.019 2.39639 559.42 11.9286C558.184 12.7737 556.836 13.223 555.376 13.2761C553.977 11.1087 554.876 9.76122 558.072 9.23353C559.099 7.71314 559.998 6.14113 560.768 4.51724C555.625 0.353026 550.684 -4.13863 545.94 -8.95788C548.397 -11.1919 550.645 -13.6623 552.68 -16.3692C552.064 -17.4438 551.165 -17.8931 549.984 -17.7167C556.472 -23.8448 563.661 -29.2348 571.552 -33.8868C573.237 -33.9911 574.36 -34.8894 574.922 -36.5819C575.426 -35.3473 576.1 -34.2243 576.944 -33.2131C574.913 -32.0848 574.239 -30.5128 574.922 -28.4968C577.65 -25.993 580.572 -23.7471 583.684 -21.7592C585.645 -20.5602 587.444 -20.5602 589.076 -21.7592C590.152 -21.1436 590.601 -20.2452 590.424 -19.0642Z" fill="#34D1FB"/>
<path fill-rule="evenodd" clip-rule="evenodd" d="M549.984 -17.7167C551.165 -17.8931 552.064 -17.4438 552.68 -16.3692C550.645 -13.6623 548.397 -11.1919 545.94 -8.95788C550.684 -4.13863 555.625 0.353026 560.768 4.51724C559.998 6.14113 559.099 7.71314 558.072 9.23353C554.876 9.76122 553.977 11.1087 555.376 13.2761C554.848 15.5384 554.174 17.7842 553.354 20.0136C549.28 22.9621 545.91 26.5558 543.244 30.7937C542.008 31.6386 540.66 32.0887 539.2 32.1412C539.052 29.0366 537.704 25.8926 535.156 22.7086C530.977 18.1425 526.484 13.8753 521.676 9.90728C525.12 6.94464 525.12 5.37264 521.676 5.19099C524.097 2.8028 526.344 0.10778 528.416 -2.89407C535.683 -7.86167 542.872 -12.8025 549.984 -17.7167Z" fill="#34D1FB"/>
<path fill-rule="evenodd" clip-rule="evenodd" d="M404.4 13.2761C404.516 14.6181 404.066 15.7409 403.052 16.6448C405.493 20.6577 408.638 24.0265 412.488 26.7512C413.541 28.4073 414.215 30.2035 414.51 32.1412C433.502 52.6733 452.149 73.336 470.452 94.1268C470.921 98.048 472.943 100.743 476.518 102.212C478.01 100.579 478.684 101.027 478.54 103.559C476.049 106.214 473.353 108.909 470.452 111.644C468.655 113.441 466.857 113.441 465.06 111.644C461.821 107.512 457.777 104.368 452.928 102.212C446.051 94.3181 438.862 86.6831 431.36 79.3041C423.226 74.3116 416.486 68.0228 411.14 60.439C410.647 58.8287 409.524 57.9313 407.77 57.744C405.861 59.1898 404.063 59.1898 402.378 57.744C401.963 58.8327 401.289 59.7315 400.356 60.439C394.387 52.5547 388.097 44.9197 381.484 37.5313C388.308 28.4706 395.947 20.3851 404.4 13.2761Z" fill="#34D1FB"/>
<path fill-rule="evenodd" clip-rule="evenodd" d="M409.792 7.88602C429.388 19.3912 448.26 31.9674 466.408 45.6163C468.644 49.1724 471.115 49.1724 473.822 45.6163C483.383 55.3979 492.594 65.2792 501.456 75.2616C499.933 77.7868 498.585 80.4819 497.412 83.3467C490.65 89.6571 484.359 96.3946 478.54 103.559C478.684 101.027 478.01 100.579 476.518 102.212C472.943 100.743 470.921 98.048 470.452 94.1268C452.149 73.336 433.502 52.6733 414.51 32.1412C414.215 30.2035 413.541 28.4073 412.488 26.7512C408.638 24.0265 405.493 20.6577 403.052 16.6448C404.066 15.7409 404.516 14.6181 404.4 13.2761C404.849 10.1319 406.647 8.33515 409.792 7.88602Z" fill="#34D1FB"/>
<path fill-rule="evenodd" clip-rule="evenodd" d="M521.676 5.19099C525.12 5.37264 525.12 6.94464 521.676 9.90728C526.484 13.8753 530.977 18.1425 535.156 22.7086C537.704 25.8926 539.052 29.0366 539.2 32.1412C534.017 41.3798 527.277 49.4648 518.98 56.3964C514.462 64.053 508.619 70.3418 501.456 75.2616C492.594 65.2792 483.383 55.3979 473.822 45.6163C471.115 49.1724 468.644 49.1724 466.408 45.6163C470.1 41.9956 474.593 39.3006 479.888 37.5313C481.173 34.8969 482.971 32.6506 485.28 30.7937C497.471 22.1776 509.603 13.6434 521.676 5.19099Z" fill="#34D1FB"/>
<path fill-rule="evenodd" clip-rule="evenodd" d="M380.136 30.7937C379.409 33.4955 378.512 36.1905 377.44 38.8788C370.933 44.7149 365.091 51.2274 359.916 58.4177C364.048 65.922 369.44 72.4345 376.092 77.9566C377.098 79.6222 377.546 81.4197 377.44 83.3467C379.687 83.3467 381.933 83.3467 384.18 83.3467C376.978 89.653 370.688 96.8407 365.308 104.907C362.84 105.651 360.594 105.651 358.568 104.907C351.387 96.6345 344.647 88.0994 338.348 79.3041C340.544 75.0918 343.464 71.498 347.11 68.5241C349.255 65.2536 350.379 61.6612 350.48 57.744C361.26 49.6589 371.145 40.6764 380.136 30.7937Z" fill="#34D1FB"/>
<path fill-rule="evenodd" clip-rule="evenodd" d="M409.792 7.88602C406.647 8.33515 404.849 10.1319 404.4 13.2761C395.947 20.3851 388.308 28.4706 381.484 37.5313C388.097 44.9197 394.387 52.5547 400.356 60.439C401.289 59.7315 401.963 58.8327 402.378 57.744C404.063 59.1898 405.861 59.1898 407.77 57.744C409.524 57.9313 410.647 58.8287 411.14 60.439C409.199 59.2761 407.401 59.2761 405.748 60.439C398.237 67.8611 391.048 75.4974 384.18 83.3467C381.933 83.3467 379.687 83.3467 377.44 83.3467C377.546 81.4197 377.098 79.6222 376.092 77.9566C369.44 72.4345 364.048 65.922 359.916 58.4177C365.091 51.2274 370.933 44.7149 377.44 38.8788C378.512 36.1905 379.409 33.4955 380.136 30.7937C388.159 22.7733 396.247 14.6883 404.4 6.53851C405.299 6.08939 406.197 5.64012 407.096 5.19099C408.731 5.5241 409.63 6.42236 409.792 7.88602Z" fill="#34D1FB"/>
<path fill-rule="evenodd" clip-rule="evenodd" d="M350.48 57.744C350.379 61.6612 349.255 65.2536 347.11 68.5241C343.464 71.498 340.544 75.0918 338.348 79.3041C344.647 88.0994 351.387 96.6345 358.568 104.907C360.594 105.651 362.84 105.651 365.308 104.907C355.4 113.465 345.964 122.449 337 131.857C334.955 131.842 333.382 130.945 332.282 129.162C326.997 121.177 320.705 113.99 313.41 107.602C312.511 105.356 312.511 103.111 313.41 100.864C315.691 98.3593 317.713 95.6643 319.476 92.7793C318.842 91.4816 317.943 91.4816 316.78 92.7793C327.494 80.719 338.727 69.0415 350.48 57.744Z" fill="#34D1FB"/>
<path fill-rule="evenodd" clip-rule="evenodd" d="M279.036 87.3892C273.977 89.9724 269.933 93.7899 266.904 98.8431C283.244 116.566 298.746 134.757 313.41 153.417C315.238 152.231 317.26 151.781 319.476 152.07C314.084 158.359 308.243 164.197 301.952 169.587C288.541 154.377 275.061 139.105 261.512 123.772C258.828 119.738 256.132 115.695 253.424 111.644C253.463 109.584 254.362 108.012 256.12 106.928C255.671 106.479 255.221 106.029 254.772 105.581C258.635 103.966 261.108 101.046 262.186 96.8218C263.418 98.3768 264.541 98.1518 265.556 96.148C264.542 95.2439 264.092 94.1214 264.208 92.7793C267.044 91.0828 269.74 89.0615 272.296 86.7155C274.675 85.8531 276.922 86.0781 279.036 87.3892Z" fill="#34D1FB"/>
<path fill-rule="evenodd" clip-rule="evenodd" d="M279.036 87.3892C284.323 93.2091 289.715 99.0492 295.212 104.907C297.908 106.703 300.604 106.703 303.3 104.907C307.48 100.267 311.973 96.2249 316.78 92.7793C317.943 91.4816 318.842 91.4816 319.476 92.7793C317.713 95.6643 315.691 98.3593 313.41 100.864C312.511 103.111 312.511 105.356 313.41 107.602C320.705 113.99 326.997 121.177 332.282 129.162C333.382 130.945 334.955 131.842 337 131.857C331.402 138.654 325.56 145.392 319.476 152.07C317.26 151.781 315.238 152.231 313.41 153.417C298.746 134.757 283.244 116.566 266.904 98.8431C269.933 93.7899 273.977 89.9724 279.036 87.3892Z" fill="#34D1FB"/>
<path fill-rule="evenodd" clip-rule="evenodd" d="M264.208 92.7793C264.092 94.1214 264.542 95.2439 265.556 96.148C264.541 98.1518 263.418 98.3768 262.186 96.8218C261.108 101.046 258.635 103.966 254.772 105.581C255.221 106.029 255.671 106.479 256.12 106.928C254.362 108.012 253.463 109.584 253.424 111.644C256.132 115.695 258.828 119.738 261.512 123.772C275.061 139.105 288.541 154.377 301.952 169.587C299.392 173.495 295.797 175.74 291.168 176.325C291.521 174.333 291.072 172.537 289.82 170.935C287.185 169.651 284.938 167.853 283.08 165.545C278.996 159.888 275.177 154.048 271.622 148.027C265.482 152.508 259.865 157.674 254.772 163.524C251.859 164.312 249.163 165.434 246.684 166.892C240.977 160.508 234.911 154.219 228.486 148.027C227.793 144.621 226.221 141.701 223.768 139.268C228.014 135.293 230.71 130.577 231.856 125.12C241.741 113.441 252.525 102.661 264.208 92.7793Z" fill="#34D1FB"/>
<path fill-rule="evenodd" clip-rule="evenodd" d="M231.856 125.12C230.71 130.577 228.014 135.293 223.768 139.268C226.221 141.701 227.793 144.621 228.486 148.027C234.911 154.219 240.977 160.508 246.684 166.892C246.8 168.235 246.35 169.357 245.336 170.261C235.621 177.96 225.735 185.371 215.68 192.495C216.183 187.803 214.835 183.761 211.636 180.368C207.143 174.977 202.2 170.036 196.808 165.545C199.314 162.362 199.764 159.218 198.156 156.112C210.253 146.701 221.486 136.37 231.856 125.12Z" fill="#34D1FB"/>
<path fill-rule="evenodd" clip-rule="evenodd" d="M198.156 156.112C199.764 159.218 199.314 162.362 196.808 165.545C202.2 170.036 207.143 174.977 211.636 180.368C214.835 183.761 216.183 187.803 215.68 192.495C209.406 196.834 203.566 201.774 198.156 207.318C192.854 207.904 189.708 205.209 188.72 199.233C182.802 193.771 177.41 187.931 172.544 181.715C181.081 173.181 189.619 164.646 198.156 156.112Z" fill="#34D1FB"/>
<path fill-rule="evenodd" clip-rule="evenodd" d="M172.544 181.715C177.41 187.931 182.802 193.771 188.72 199.233C189.708 205.209 192.854 207.904 198.156 207.318C185.75 216.882 173.168 226.54 160.412 236.289C161.225 238.748 162.124 241.22 163.108 243.701C167.969 247.145 172.238 251.187 175.914 255.828C178.144 254.275 180.166 252.477 181.98 250.438C183.011 251.937 184.359 252.835 186.024 253.133C187.528 258.681 191.124 261.825 196.808 262.566C192.776 306.59 188.507 350.608 184.002 394.622C181.576 397.135 181.352 399.83 183.328 402.707C180.744 401.486 178.498 399.69 176.588 397.317C172.122 374.308 168.527 351.177 165.804 327.92C166.597 309.644 169.742 291.901 175.24 274.693C172.993 271.998 170.747 269.303 168.5 266.608C162.915 265.432 158.197 262.737 154.346 258.523C152.874 259.596 151.301 260.495 149.628 261.218C145.007 259.554 140.738 257.309 136.822 254.481C121.939 266.344 106.886 278.247 91.664 290.19C108.756 290.415 125.831 291.089 142.888 292.211C143.787 293.11 144.685 294.007 145.584 294.906C143.717 296.322 142.369 298.119 141.54 300.296C137.158 300.907 134.012 303.151 132.104 307.034C98.1816 328.707 64.9309 351.39 32.352 375.083C36.3041 376.367 40.3481 377.041 44.484 377.104C44.8494 380.232 43.9509 382.927 41.788 385.189C27.7901 387.701 13.8607 390.396 0 393.274C0 387.884 0 382.494 0 377.104C4.00774 367.284 8.05174 357.401 12.132 347.459C14.6803 347.185 16.7023 348.083 18.198 350.154C18.7547 353.835 19.6534 357.429 20.894 360.934C37.2461 347.285 53.1975 333.136 68.748 318.488C58.3077 317.426 47.9732 318.099 37.744 320.509C32.0899 321.234 29.6187 318.989 30.33 313.771C36.8453 307.259 43.3607 300.745 49.876 294.232C53.9918 290.366 58.4851 286.998 63.356 284.126C72.3857 275.55 80.923 266.567 88.968 257.176C93.6048 253.187 98.5474 249.593 103.796 246.396C125.382 225.536 146.95 204.425 168.5 183.063C169.612 181.869 170.96 181.42 172.544 181.715Z" fill="#34D1FB"/>
<path fill-rule="evenodd" clip-rule="evenodd" d="M311.388 210.013C311.577 214.869 313.824 219.135 318.128 222.814C317.054 226.518 317.054 229.887 318.128 232.92C317.229 232.92 316.331 232.92 315.432 232.92C313.883 233.313 312.984 234.435 312.736 236.289C313.104 239.188 314.002 241.883 315.432 244.374C302.975 356.195 291.517 468.262 281.058 580.579C279.772 588.751 278.424 596.836 277.014 604.834C275.996 609.894 276.22 614.835 277.688 619.656C272.745 619.656 267.803 619.656 262.86 619.656C262.946 614.644 263.62 609.704 264.882 604.834C268.466 602.732 270.039 599.588 269.6 595.401C267.643 594.32 265.397 593.647 262.86 593.38C265.015 590.973 266.14 588.053 266.23 584.621C278.721 459.352 291.527 334.484 304.648 210.013C306.895 208.217 309.141 208.217 311.388 210.013Z" fill="#34D1FB"/>
<path fill-rule="evenodd" clip-rule="evenodd" d="M311.388 210.013C315.493 214.791 320.211 218.834 325.542 222.14C328.942 219.227 332.761 218.778 337 220.793C343.416 225.769 349.706 230.711 355.872 235.616C351.445 237.175 346.951 237.4 342.392 236.289C338.961 233.028 334.917 231.007 330.26 230.225C326.256 231.473 322.212 232.371 318.128 232.92C317.054 229.887 317.054 226.518 318.128 222.814C313.824 219.135 311.577 214.869 311.388 210.013Z" fill="#34D1FB"/>
<path fill-rule="evenodd" clip-rule="evenodd" d="M304.648 210.013C291.527 334.484 278.721 459.352 266.23 584.621C266.14 588.053 265.015 590.973 262.86 593.38C265.397 593.647 267.643 594.32 269.6 595.401C261.821 596.227 254.632 595.328 248.032 592.706C254.07 540.789 259.911 488.91 265.556 437.069C265.956 422.54 267.304 408.167 269.6 393.948C269.551 391.126 269.103 388.431 268.252 385.863C269.022 384.239 269.921 382.667 270.948 381.147C274.048 339.094 278.543 297.321 284.428 255.828C284.389 252.097 283.491 248.952 281.732 246.396C284.241 237.324 288.06 228.79 293.19 220.793C297.276 217.38 301.095 213.786 304.648 210.013Z" fill="#34D1FB"/>
<path fill-rule="evenodd" clip-rule="evenodd" d="M315.432 232.92C318.067 239.535 320.314 246.273 322.172 253.133C328.695 254.095 334.986 255.443 341.044 257.176C341.044 263.014 341.044 268.855 341.044 274.693C343.74 274.693 346.436 274.693 349.132 274.693C341.926 277.946 334.737 281.54 327.564 285.473C326.635 287.19 325.511 287.19 324.194 285.473C324.116 292.212 322.993 298.726 320.824 305.012C321.623 308.775 322.072 312.594 322.172 316.466C313.641 397.037 304.879 477.437 295.886 557.671C294.922 571.585 294.248 585.509 293.864 599.444C290.789 598.874 288.542 599.772 287.124 602.139C287.124 607.978 287.124 613.818 287.124 619.656C283.979 619.656 280.833 619.656 277.688 619.656C276.22 614.835 275.996 609.894 277.014 604.834C278.424 596.836 279.772 588.751 281.058 580.579C291.517 468.262 302.975 356.195 315.432 244.374C314.002 241.883 313.104 239.188 312.736 236.289C312.984 234.435 313.883 233.313 315.432 232.92Z" fill="#34D1FB"/>
<path fill-rule="evenodd" clip-rule="evenodd" d="M349.132 274.693C346.436 274.693 343.74 274.693 341.044 274.693C341.044 268.855 341.044 263.014 341.044 257.176C349.654 256.352 358.191 256.352 366.656 257.176C368.5 260.636 368.05 263.78 365.308 266.608C361.836 267.662 359.14 269.683 357.22 272.672C354.61 273.768 351.914 274.441 349.132 274.693Z" fill="#34D1FB"/>
<path fill-rule="evenodd" clip-rule="evenodd" d="M253.424 263.913C254.888 264.075 255.787 264.974 256.12 266.608C254.31 272.078 252.511 277.468 250.728 282.778C230.597 273.605 231.496 267.316 253.424 263.913Z" fill="#34D1FB"/>
<path fill-rule="evenodd" clip-rule="evenodd" d="M186.024 253.133C187.372 253.133 188.72 253.133 190.068 253.133C190.041 255.347 190.94 257.143 192.764 258.523C197.835 262.837 203.227 266.43 208.94 269.303C208.834 271.23 209.282 273.028 210.288 274.693C207.895 299.187 204.974 323.442 201.526 347.459C200.298 361.81 199.624 376.183 199.504 390.579C199.342 392.043 198.443 392.942 196.808 393.274C195.138 392.679 193.79 391.78 192.764 390.579C191.304 390.632 189.956 391.082 188.72 391.927C187.532 395.471 186.633 399.065 186.024 402.707C185.125 402.707 184.227 402.707 183.328 402.707C181.352 399.83 181.576 397.135 184.002 394.622C188.507 350.608 192.776 306.59 196.808 262.566C191.124 261.825 187.528 258.681 186.024 253.133Z" fill="#34D1FB"/>
<path fill-rule="evenodd" clip-rule="evenodd" d="M208.94 269.303C213.272 270.5 217.316 272.296 221.072 274.693C222.518 282.26 222.744 289.896 221.746 297.601C219.454 324.589 216.084 351.539 211.636 378.452C208.94 383.842 204.896 387.884 199.504 390.579C199.624 376.183 200.298 361.81 201.526 347.459C204.974 323.442 207.895 299.187 210.288 274.693C209.282 273.028 208.834 271.23 208.94 269.303Z" fill="#34D1FB"/>
<path fill-rule="evenodd" clip-rule="evenodd" d="M221.072 274.693C226.093 277.304 231.485 279.1 237.248 280.083C240.011 282.936 242.707 285.631 245.336 288.168C247.133 288.168 248.931 288.168 250.728 288.168C250.499 289.95 250.948 291.522 252.076 292.885C249.713 310.048 247.916 327.341 246.684 344.764C244.398 350.623 242.151 356.463 239.944 362.282C239.181 364.408 237.833 366.206 235.9 367.672C234.52 365.848 232.723 364.95 230.508 364.977C230.535 367.191 229.636 368.987 227.812 370.367C225.322 372.159 223.3 371.71 221.746 369.019C219.406 373.384 216.036 376.529 211.636 378.452C216.084 351.539 219.454 324.589 221.746 297.601C222.744 289.896 222.518 282.26 221.072 274.693Z" fill="#34D1FB"/>
<path fill-rule="evenodd" clip-rule="evenodd" d="M327.564 285.473C329.299 287.321 330.197 289.792 330.26 292.885C330.565 296.484 329.666 299.628 327.564 302.317C331.159 303.665 331.159 305.012 327.564 306.36C330.589 306.427 332.836 307.55 334.304 309.729C334.971 312.359 335.42 315.054 335.652 317.814C332.978 342.352 330.505 367.056 328.238 391.927C326.952 400.1 325.604 408.185 324.194 416.182C319.365 469.126 314.422 522.129 309.366 575.188C308.364 584.007 306.791 592.542 304.648 600.791C299.748 601.619 294.805 602.069 289.82 602.139C288.921 602.139 288.023 602.139 287.124 602.139C288.542 599.772 290.789 598.874 293.864 599.444C294.248 585.509 294.922 571.585 295.886 557.671C304.879 477.437 313.641 397.037 322.172 316.466C322.072 312.594 321.623 308.775 320.824 305.012C322.993 298.726 324.116 292.212 324.194 285.473C325.511 287.19 326.635 287.19 327.564 285.473Z" fill="#34D1FB"/>
<path fill-rule="evenodd" clip-rule="evenodd" d="M334.304 309.729C342.175 310.514 347.567 314.557 350.48 321.856C349.925 337.632 348.577 353.353 346.436 369.019C345.761 371.923 344.413 374.169 342.392 375.757C341.02 376.824 340.571 379.07 341.044 382.494C340.609 390.835 341.057 398.92 342.392 406.75C337.469 455.152 332.751 503.663 328.238 552.281C326.407 565.678 324.385 579.153 322.172 592.706C322.737 596.513 321.389 599.432 318.128 601.465C313.374 602.554 308.881 602.329 304.648 600.791C306.791 592.542 308.364 584.007 309.366 575.188C314.422 522.129 319.365 469.126 324.194 416.182C325.604 408.185 326.952 400.1 328.238 391.927C330.505 367.056 332.978 342.352 335.652 317.814C335.42 315.054 334.971 312.359 334.304 309.729Z" fill="#34D1FB"/>
<path fill-rule="evenodd" clip-rule="evenodd" d="M350.48 321.856C353.859 322.525 356.555 324.322 358.568 327.246C362.545 332.972 366.14 338.811 369.352 344.764C366.545 344.597 364.523 343.249 363.286 340.721C362.837 341.62 362.387 342.518 361.938 343.416C361.113 358.265 359.99 373.087 358.568 387.884C357.692 390.154 356.344 391.95 354.524 393.274C352.859 392.977 351.511 392.078 350.48 390.579C348.81 384.987 346.114 380.047 342.392 375.757C344.413 374.169 345.761 371.923 346.436 369.019C348.577 353.353 349.925 337.632 350.48 321.856Z" fill="#34D1FB"/>
<path fill-rule="evenodd" clip-rule="evenodd" d="M394.964 425.615C395.84 426.024 396.739 426.473 397.66 426.962C400.715 398.981 403.634 371.132 406.422 343.416C407.389 342.683 408.063 341.785 408.444 340.721C416.01 333.865 424.997 329.823 435.404 328.594C435.404 329.941 435.404 331.289 435.404 332.636C440.253 331.064 445.196 329.716 450.232 328.594C452.479 329.043 454.725 329.493 456.972 329.941C454.95 333.085 452.928 336.23 450.906 339.374C445.914 342.328 440.747 345.023 435.404 347.459C430.999 348.789 426.505 349.238 421.924 348.807C422.369 358.282 421.92 367.715 420.576 377.104C418.067 382.427 416.719 388.042 416.532 393.948C417.431 400.686 418.329 407.423 419.228 414.161C418.779 417.53 418.329 420.898 417.88 424.267C416.981 424.716 416.083 425.166 415.184 425.615C413.193 433.667 408.475 439.508 401.03 443.132C399.538 443.018 398.19 442.568 396.986 441.785C396.576 436.33 395.902 430.94 394.964 425.615Z" fill="#34D1FB"/>
<path fill-rule="evenodd" clip-rule="evenodd" d="M408.444 340.721C408.063 341.785 407.389 342.683 406.422 343.416C403.634 371.132 400.715 398.981 397.66 426.962C396.739 426.473 395.84 426.024 394.964 425.615C394.991 423.401 394.092 421.604 392.268 420.225C388.638 418.148 385.044 416.352 381.484 414.835C385.5 395.571 388.196 376.032 389.572 356.218C389.228 354.431 388.329 353.084 386.876 352.175C388.51 350.684 388.061 350.01 385.528 350.154C385.528 349.705 385.528 349.255 385.528 348.807C392.47 344.217 400.109 341.522 408.444 340.721Z" fill="#34D1FB"/>
<path fill-rule="evenodd" clip-rule="evenodd" d="M369.352 344.764C374.962 345.793 380.354 347.141 385.528 348.807C385.528 349.255 385.528 349.705 385.528 350.154C382.98 349.881 380.958 350.778 379.462 352.849C378.241 350.003 376.219 348.881 373.396 349.48C375.041 351.535 375.94 354.007 376.092 356.892C373.842 373.541 371.596 390.16 369.352 406.75C363.076 403.615 358.133 399.124 354.524 393.274C356.344 391.95 357.692 390.154 358.568 387.884C359.99 373.087 361.113 358.265 361.938 343.416C362.387 342.518 362.837 341.62 363.286 340.721C364.523 343.249 366.545 344.597 369.352 344.764Z" fill="#34D1FB"/>
<path fill-rule="evenodd" clip-rule="evenodd" d="M385.528 350.154C388.061 350.01 388.51 350.684 386.876 352.175C388.329 353.084 389.228 354.431 389.572 356.218C388.196 376.032 385.5 395.571 381.484 414.835C377.784 411.578 373.74 408.883 369.352 406.75C371.596 390.16 373.842 373.541 376.092 356.892C375.94 354.007 375.041 351.535 373.396 349.48C376.219 348.881 378.241 350.003 379.462 352.849C380.958 350.778 382.98 349.881 385.528 350.154Z" fill="#34D1FB"/>
<path fill-rule="evenodd" clip-rule="evenodd" d="M281.732 246.396C283.491 248.952 284.389 252.097 284.428 255.828C278.543 297.321 274.048 339.094 270.948 381.147C269.921 382.667 269.022 384.239 268.252 385.863C269.103 388.431 269.551 391.126 269.6 393.948C267.304 408.167 265.956 422.54 265.556 437.069C259.911 488.91 254.07 540.789 248.032 592.706C239.42 590.543 231.332 591.441 223.768 595.401C223.821 593.942 224.271 592.594 225.116 591.359C228.526 590.507 231.671 589.16 234.552 587.316C235.342 587.598 236.016 588.048 236.574 588.664C237.596 560.599 240.068 532.751 243.988 505.118C246.666 493.943 249.362 482.714 252.076 471.43C258.124 434.489 263.965 397.657 269.6 360.934C268.016 354.245 266.668 347.508 265.556 340.721C256.487 347.564 247.95 354.75 239.944 362.282C242.151 356.463 244.398 350.623 246.684 344.764C247.916 327.341 249.713 310.048 252.076 292.885C250.948 291.522 250.499 289.95 250.728 288.168C248.931 288.168 247.133 288.168 245.336 288.168C245.959 286.309 247.307 285.41 249.38 285.473C256.284 290.5 263.922 293.643 272.296 294.906C272.296 292.211 272.296 289.516 272.296 286.821C265.335 284.478 258.146 283.13 250.728 282.778C252.511 277.468 254.31 272.078 256.12 266.608C255.787 264.974 254.888 264.075 253.424 263.913C261.45 259.995 269.988 257.3 279.036 255.828C278.349 251.937 279.246 248.793 281.732 246.396Z" fill="#34D1FB"/>
<path fill-rule="evenodd" clip-rule="evenodd" d="M192.764 390.579C190.974 393.935 189.626 397.527 188.72 401.359C188.104 402.435 187.205 402.884 186.024 402.707C186.633 399.065 187.532 395.471 188.72 391.927C189.956 391.082 191.304 390.632 192.764 390.579Z" fill="#34D1FB"/>
<path fill-rule="evenodd" clip-rule="evenodd" d="M342.392 406.75C342.521 423.316 345.668 439.486 351.828 455.26C347.432 502.43 342.04 549.144 335.652 595.401C333.452 594.126 331.205 592.779 328.912 591.359C326.794 592.449 324.547 592.899 322.172 592.706C324.385 579.153 326.407 565.678 328.238 552.281C332.751 503.663 337.469 455.152 342.392 406.75Z" fill="#34D1FB"/>
<path fill-rule="evenodd" clip-rule="evenodd" d="M341.044 382.494C344.43 402.063 347.575 422.052 350.48 442.459C352.58 448.95 355.501 455.013 359.242 460.65C359.908 462.852 360.132 465.098 359.916 467.388C361.523 482.411 361.523 497.459 359.916 512.529C355.094 547.206 351.949 582.018 350.48 616.961C346.436 616.961 342.392 616.961 338.348 616.961C336.284 609.965 335.386 602.777 335.652 595.401C342.04 549.144 347.432 502.43 351.828 455.26C345.668 439.486 342.521 423.316 342.392 406.75C341.057 398.92 340.609 390.835 341.044 382.494Z" fill="#34D1FB"/>
<path fill-rule="evenodd" clip-rule="evenodd" d="M359.916 467.388C361.748 468.071 363.096 469.418 363.96 471.43C367.077 478.31 368.873 485.497 369.352 492.99C369.747 500.577 371.095 507.988 373.396 515.224C371.393 540.956 368.248 566.334 363.96 591.359C362.83 591.82 362.38 592.717 362.612 594.054C363.73 600.728 364.18 607.465 363.96 614.266C361.544 614.086 359.299 614.535 357.22 615.614C356.903 614.809 356.229 614.361 355.198 614.266C353.746 615.518 352.173 616.417 350.48 616.961C351.949 582.018 355.094 547.206 359.916 512.529C361.523 497.459 361.523 482.411 359.916 467.388Z" fill="#34D1FB"/>
<path fill-rule="evenodd" clip-rule="evenodd" d="M243.988 505.118C240.068 532.751 237.596 560.599 236.574 588.664C236.016 588.048 235.342 587.598 234.552 587.316C231.671 589.16 228.526 590.507 225.116 591.359C224.271 592.594 223.821 593.942 223.768 595.401C222.42 595.401 221.072 595.401 219.724 595.401C218.209 592.395 217.535 589.251 217.702 585.969C219.134 582.561 220.256 578.967 221.072 575.188C221.971 574.74 222.869 574.29 223.768 573.841C225.171 569.406 226.97 565.14 229.16 561.04C226.281 551.971 225.832 542.762 227.812 533.416C232.585 525.669 236.629 517.584 239.944 509.16C240.808 507.149 242.156 505.801 243.988 505.118Z" fill="#34D1FB"/>
<path fill-rule="evenodd" clip-rule="evenodd" d="M369.352 492.99C373.933 499.088 376.18 506.275 376.092 514.55C379.257 522.877 382.852 530.962 386.876 538.806C385.79 553.108 383.993 567.257 381.484 581.252C382.234 581.768 382.682 582.442 382.832 583.274C380.422 582.89 378.175 583.338 376.092 584.621C373.536 590.402 369.492 592.648 363.96 591.359C368.248 566.334 371.393 540.956 373.396 515.224C371.095 507.988 369.747 500.577 369.352 492.99Z" fill="#34D1FB"/>
<path fill-rule="evenodd" clip-rule="evenodd" d="M376.092 514.55C380.193 518.663 383.338 523.604 385.528 529.373C395.975 535.383 407.209 538.975 419.228 540.153C419.465 546.663 416.769 551.603 411.14 554.976C409.839 564.024 407.143 572.558 403.052 580.579C396.545 582.927 389.805 583.826 382.832 583.274C382.682 582.442 382.234 581.768 381.484 581.252C383.993 567.257 385.79 553.108 386.876 538.806C382.852 530.962 379.257 522.877 376.092 514.55Z" fill="#34D1FB"/>
<path fill-rule="evenodd" clip-rule="evenodd" d="M362.612 594.054C366.64 597.553 370.684 601.147 374.744 604.834C376.092 605.282 377.44 605.733 378.788 606.181C382.13 604.196 385.725 602.849 389.572 602.139C393.632 601.706 395.429 603.502 394.964 607.529C393.38 607.234 392.032 607.682 390.92 608.876C389.123 611.123 387.325 613.368 385.528 615.614C375.882 617.391 366.446 617.391 357.22 615.614C359.299 614.535 361.544 614.086 363.96 614.266C364.18 607.465 363.73 600.728 362.612 594.054Z" fill="#34D1FB"/>
<path fill-rule="evenodd" clip-rule="evenodd" d="M287.124 602.139C288.023 602.139 288.921 602.139 289.82 602.139C289.82 607.978 289.82 613.818 289.82 619.656C288.921 619.656 288.023 619.656 287.124 619.656C287.124 613.818 287.124 607.978 287.124 602.139Z" fill="#34D1FB"/>
</g>
<g opacity="0.431">
<path fill-rule="evenodd" clip-rule="evenodd" d="M656.476 -108C662.317 -108 668.159 -108 674 -108C672.856 -102.334 670.834 -96.9442 667.934 -91.8299C658.76 -77.4929 650.448 -62.6702 642.996 -47.362C637.601 -48.6682 633.557 -52.2617 630.864 -58.1421C621.568 -65.617 614.378 -74.6004 609.296 -85.0923C618.934 -88.2933 628.37 -92.1114 637.604 -96.5461C638.618 -97.45 639.068 -98.5729 638.952 -99.9149C645.119 -102.37 650.96 -105.065 656.476 -108Z" fill="#34D1FB"/>
<path fill-rule="evenodd" clip-rule="evenodd" d="M638.952 -99.9149C639.068 -98.5729 638.618 -97.45 637.604 -96.5461C628.37 -92.1114 618.934 -88.2933 609.296 -85.0923C614.378 -74.6004 621.568 -65.617 630.864 -58.1421C633.557 -52.2617 637.601 -48.6682 642.996 -47.362C636.937 -37.9507 631.545 -28.0688 626.82 -17.7167C622.432 -22.3216 617.714 -26.8134 612.666 -31.1918C607.874 -38.689 602.032 -45.4265 595.142 -51.4045C594.693 -52.752 594.243 -54.0995 593.794 -55.447C587.634 -60.2532 582.467 -65.8678 578.292 -72.2909C591.004 -78.3097 603.585 -84.3735 616.036 -90.4823C616.719 -92.3135 618.067 -93.661 620.08 -94.5249C626.213 -96.9804 632.503 -98.777 638.952 -99.9149Z" fill="#34D1FB"/>
<path fill-rule="evenodd" clip-rule="evenodd" d="M616.036 -90.4823C603.585 -84.3735 591.004 -78.3097 578.292 -72.2909C582.467 -65.8678 587.634 -60.2532 593.794 -55.447C594.243 -54.0995 594.693 -52.752 595.142 -51.4045C602.032 -45.4265 607.874 -38.689 612.666 -31.1918C617.714 -26.8134 622.432 -22.3216 626.82 -17.7167C622.271 -11.6917 619.124 -4.95415 617.384 2.49597C615.533 2.70713 613.735 2.4825 611.992 1.82222C606.073 -4.99444 599.333 -10.8336 591.772 -15.6954C590.758 -16.5993 590.308 -17.7222 590.424 -19.0642C590.601 -20.2452 590.152 -21.1436 589.076 -21.7592C587.444 -20.5602 585.645 -20.5602 583.684 -21.7592C580.572 -23.7471 577.65 -25.993 574.922 -28.4968C574.239 -30.5128 574.913 -32.0848 576.944 -33.2131C576.1 -34.2243 575.426 -35.3473 574.922 -36.5819C574.36 -34.8894 573.237 -33.9911 571.552 -33.8868C567.383 -38.9604 562.44 -43.0029 556.724 -46.0145C553.552 -50.5269 549.957 -54.5694 545.94 -58.1421C540.749 -59.2806 538.053 -62.4247 537.852 -67.5746C543.961 -68.5745 550.027 -69.922 556.05 -71.6172C571.552 -77.2319 587.054 -82.8464 602.556 -88.4611C606.995 -89.5736 611.488 -90.2473 616.036 -90.4823Z" fill="#34D1FB"/>
<path fill-rule="evenodd" clip-rule="evenodd" d="M590.424 -19.0642C587.818 -18.7562 585.571 -17.6333 583.684 -15.6954C575.107 -6.8117 567.019 2.39639 559.42 11.9286C558.184 12.7737 556.836 13.223 555.376 13.2761C553.977 11.1087 554.876 9.76122 558.072 9.23353C559.099 7.71314 559.998 6.14113 560.768 4.51724C555.625 0.353026 550.684 -4.13863 545.94 -8.95788C548.397 -11.1919 550.645 -13.6623 552.68 -16.3692C552.064 -17.4438 551.165 -17.8931 549.984 -17.7167C556.472 -23.8448 563.661 -29.2348 571.552 -33.8868C573.237 -33.9911 574.36 -34.8894 574.922 -36.5819C575.426 -35.3473 576.1 -34.2243 576.944 -33.2131C574.913 -32.0848 574.239 -30.5128 574.922 -28.4968C577.65 -25.993 580.572 -23.7471 583.684 -21.7592C585.645 -20.5602 587.444 -20.5602 589.076 -21.7592C590.152 -21.1436 590.601 -20.2452 590.424 -19.0642Z" fill="#34D1FB"/>
<path fill-rule="evenodd" clip-rule="evenodd" d="M549.984 -17.7167C551.165 -17.8931 552.064 -17.4438 552.68 -16.3692C550.645 -13.6623 548.397 -11.1919 545.94 -8.95788C550.684 -4.13863 555.625 0.353026 560.768 4.51724C559.998 6.14113 559.099 7.71314 558.072 9.23353C554.876 9.76122 553.977 11.1087 555.376 13.2761C554.848 15.5384 554.174 17.7842 553.354 20.0136C549.28 22.9621 545.91 26.5558 543.244 30.7937C542.008 31.6386 540.66 32.0887 539.2 32.1412C539.052 29.0366 537.704 25.8926 535.156 22.7086C530.977 18.1425 526.484 13.8753 521.676 9.90728C525.12 6.94464 525.12 5.37264 521.676 5.19099C524.097 2.8028 526.344 0.10778 528.416 -2.89407C535.683 -7.86167 542.872 -12.8025 549.984 -17.7167Z" fill="#34D1FB"/>
<path fill-rule="evenodd" clip-rule="evenodd" d="M404.4 13.2761C404.516 14.6181 404.066 15.7409 403.052 16.6448C405.493 20.6577 408.638 24.0265 412.488 26.7512C413.541 28.4073 414.215 30.2035 414.51 32.1412C433.502 52.6733 452.149 73.336 470.452 94.1268C470.921 98.048 472.943 100.743 476.518 102.212C478.01 100.579 478.684 101.027 478.54 103.559C476.049 106.214 473.353 108.909 470.452 111.644C468.655 113.441 466.857 113.441 465.06 111.644C461.821 107.512 457.777 104.368 452.928 102.212C446.051 94.3181 438.862 86.6831 431.36 79.3041C423.226 74.3116 416.486 68.0228 411.14 60.439C410.647 58.8287 409.524 57.9313 407.77 57.744C405.861 59.1898 404.063 59.1898 402.378 57.744C401.963 58.8327 401.289 59.7315 400.356 60.439C394.387 52.5547 388.097 44.9197 381.484 37.5313C388.308 28.4706 395.947 20.3851 404.4 13.2761Z" fill="#34D1FB"/>
<path fill-rule="evenodd" clip-rule="evenodd" d="M409.792 7.88602C429.388 19.3912 448.26 31.9674 466.408 45.6163C468.644 49.1724 471.115 49.1724 473.822 45.6163C483.383 55.3979 492.594 65.2792 501.456 75.2616C499.933 77.7868 498.585 80.4819 497.412 83.3467C490.65 89.6571 484.359 96.3946 478.54 103.559C478.684 101.027 478.01 100.579 476.518 102.212C472.943 100.743 470.921 98.048 470.452 94.1268C452.149 73.336 433.502 52.6733 414.51 32.1412C414.215 30.2035 413.541 28.4073 412.488 26.7512C408.638 24.0265 405.493 20.6577 403.052 16.6448C404.066 15.7409 404.516 14.6181 404.4 13.2761C404.849 10.1319 406.647 8.33515 409.792 7.88602Z" fill="#34D1FB"/>
<path fill-rule="evenodd" clip-rule="evenodd" d="M521.676 5.19099C525.12 5.37264 525.12 6.94464 521.676 9.90728C526.484 13.8753 530.977 18.1425 535.156 22.7086C537.704 25.8926 539.052 29.0366 539.2 32.1412C534.017 41.3798 527.277 49.4648 518.98 56.3964C514.462 64.053 508.619 70.3418 501.456 75.2616C492.594 65.2792 483.383 55.3979 473.822 45.6163C471.115 49.1724 468.644 49.1724 466.408 45.6163C470.1 41.9956 474.593 39.3006 479.888 37.5313C481.173 34.8969 482.971 32.6506 485.28 30.7937C497.471 22.1776 509.603 13.6434 521.676 5.19099Z" fill="#34D1FB"/>
<path fill-rule="evenodd" clip-rule="evenodd" d="M380.136 30.7937C379.409 33.4955 378.512 36.1905 377.44 38.8788C370.933 44.7149 365.091 51.2274 359.916 58.4177C364.048 65.922 369.44 72.4345 376.092 77.9566C377.098 79.6222 377.546 81.4197 377.44 83.3467C379.687 83.3467 381.933 83.3467 384.18 83.3467C376.978 89.653 370.688 96.8407 365.308 104.907C362.84 105.651 360.594 105.651 358.568 104.907C351.387 96.6345 344.647 88.0994 338.348 79.3041C340.544 75.0918 343.464 71.498 347.11 68.5241C349.255 65.2536 350.379 61.6612 350.48 57.744C361.26 49.6589 371.145 40.6764 380.136 30.7937Z" fill="#34D1FB"/>
<path fill-rule="evenodd" clip-rule="evenodd" d="M409.792 7.88602C406.647 8.33515 404.849 10.1319 404.4 13.2761C395.947 20.3851 388.308 28.4706 381.484 37.5313C388.097 44.9197 394.387 52.5547 400.356 60.439C401.289 59.7315 401.963 58.8327 402.378 57.744C404.063 59.1898 405.861 59.1898 407.77 57.744C409.524 57.9313 410.647 58.8287 411.14 60.439C409.199 59.2761 407.401 59.2761 405.748 60.439C398.237 67.8611 391.048 75.4974 384.18 83.3467C381.933 83.3467 379.687 83.3467 377.44 83.3467C377.546 81.4197 377.098 79.6222 376.092 77.9566C369.44 72.4345 364.048 65.922 359.916 58.4177C365.091 51.2274 370.933 44.7149 377.44 38.8788C378.512 36.1905 379.409 33.4955 380.136 30.7937C388.159 22.7733 396.247 14.6883 404.4 6.53851C405.299 6.08939 406.197 5.64012 407.096 5.19099C408.731 5.5241 409.63 6.42236 409.792 7.88602Z" fill="#34D1FB"/>
<path fill-rule="evenodd" clip-rule="evenodd" d="M350.48 57.744C350.379 61.6612 349.255 65.2536 347.11 68.5241C343.464 71.498 340.544 75.0918 338.348 79.3041C344.647 88.0994 351.387 96.6345 358.568 104.907C360.594 105.651 362.84 105.651 365.308 104.907C355.4 113.465 345.964 122.449 337 131.857C334.955 131.842 333.382 130.945 332.282 129.162C326.997 121.177 320.705 113.99 313.41 107.602C312.511 105.356 312.511 103.111 313.41 100.864C315.691 98.3593 317.713 95.6643 319.476 92.7793C318.842 91.4816 317.943 91.4816 316.78 92.7793C327.494 80.719 338.727 69.0415 350.48 57.744Z" fill="#34D1FB"/>
<path fill-rule="evenodd" clip-rule="evenodd" d="M279.036 87.3892C273.977 89.9724 269.933 93.7899 266.904 98.8431C283.244 116.566 298.746 134.757 313.41 153.417C315.238 152.231 317.26 151.781 319.476 152.07C314.084 158.359 308.243 164.197 301.952 169.587C288.541 154.377 275.061 139.105 261.512 123.772C258.828 119.738 256.132 115.695 253.424 111.644C253.463 109.584 254.362 108.012 256.12 106.928C255.671 106.479 255.221 106.029 254.772 105.581C258.635 103.966 261.108 101.046 262.186 96.8218C263.418 98.3768 264.541 98.1518 265.556 96.148C264.542 95.2439 264.092 94.1214 264.208 92.7793C267.044 91.0828 269.74 89.0615 272.296 86.7155C274.675 85.8531 276.922 86.0781 279.036 87.3892Z" fill="#34D1FB"/>
<path fill-rule="evenodd" clip-rule="evenodd" d="M279.036 87.3892C284.323 93.2091 289.715 99.0492 295.212 104.907C297.908 106.703 300.604 106.703 303.3 104.907C307.48 100.267 311.973 96.2249 316.78 92.7793C317.943 91.4816 318.842 91.4816 319.476 92.7793C317.713 95.6643 315.691 98.3593 313.41 100.864C312.511 103.111 312.511 105.356 313.41 107.602C320.705 113.99 326.997 121.177 332.282 129.162C333.382 130.945 334.955 131.842 337 131.857C331.402 138.654 325.56 145.392 319.476 152.07C317.26 151.781 315.238 152.231 313.41 153.417C298.746 134.757 283.244 116.566 266.904 98.8431C269.933 93.7899 273.977 89.9724 279.036 87.3892Z" fill="#34D1FB"/>
<path fill-rule="evenodd" clip-rule="evenodd" d="M264.208 92.7793C264.092 94.1214 264.542 95.2439 265.556 96.148C264.541 98.1518 263.418 98.3768 262.186 96.8218C261.108 101.046 258.635 103.966 254.772 105.581C255.221 106.029 255.671 106.479 256.12 106.928C254.362 108.012 253.463 109.584 253.424 111.644C256.132 115.695 258.828 119.738 261.512 123.772C275.061 139.105 288.541 154.377 301.952 169.587C299.392 173.495 295.797 175.74 291.168 176.325C291.521 174.333 291.072 172.537 289.82 170.935C287.185 169.651 284.938 167.853 283.08 165.545C278.996 159.888 275.177 154.048 271.622 148.027C265.482 152.508 259.865 157.674 254.772 163.524C251.859 164.312 249.163 165.434 246.684 166.892C240.977 160.508 234.911 154.219 228.486 148.027C227.793 144.621 226.221 141.701 223.768 139.268C228.014 135.293 230.71 130.577 231.856 125.12C241.741 113.441 252.525 102.661 264.208 92.7793Z" fill="#34D1FB"/>
<path fill-rule="evenodd" clip-rule="evenodd" d="M231.856 125.12C230.71 130.577 228.014 135.293 223.768 139.268C226.221 141.701 227.793 144.621 228.486 148.027C234.911 154.219 240.977 160.508 246.684 166.892C246.8 168.235 246.35 169.357 245.336 170.261C235.621 177.96 225.735 185.371 215.68 192.495C216.183 187.803 214.835 183.761 211.636 180.368C207.143 174.977 202.2 170.036 196.808 165.545C199.314 162.362 199.764 159.218 198.156 156.112C210.253 146.701 221.486 136.37 231.856 125.12Z" fill="#34D1FB"/>
<path fill-rule="evenodd" clip-rule="evenodd" d="M198.156 156.112C199.764 159.218 199.314 162.362 196.808 165.545C202.2 170.036 207.143 174.977 211.636 180.368C214.835 183.761 216.183 187.803 215.68 192.495C209.406 196.834 203.566 201.774 198.156 207.318C192.854 207.904 189.708 205.209 188.72 199.233C182.802 193.771 177.41 187.931 172.544 181.715C181.081 173.181 189.619 164.646 198.156 156.112Z" fill="#34D1FB"/>
<path fill-rule="evenodd" clip-rule="evenodd" d="M172.544 181.715C177.41 187.931 182.802 193.771 188.72 199.233C189.708 205.209 192.854 207.904 198.156 207.318C185.75 216.882 173.168 226.54 160.412 236.289C161.225 238.748 162.124 241.22 163.108 243.701C167.969 247.145 172.238 251.187 175.914 255.828C178.144 254.275 180.166 252.477 181.98 250.438C183.011 251.937 184.359 252.835 186.024 253.133C187.528 258.681 191.124 261.825 196.808 262.566C192.776 306.59 188.507 350.608 184.002 394.622C181.576 397.135 181.352 399.83 183.328 402.707C180.744 401.486 178.498 399.69 176.588 397.317C172.122 374.308 168.527 351.177 165.804 327.92C166.597 309.644 169.742 291.901 175.24 274.693C172.993 271.998 170.747 269.303 168.5 266.608C162.915 265.432 158.197 262.737 154.346 258.523C152.874 259.596 151.301 260.495 149.628 261.218C145.007 259.554 140.738 257.309 136.822 254.481C121.939 266.344 106.886 278.247 91.664 290.19C108.756 290.415 125.831 291.089 142.888 292.211C143.787 293.11 144.685 294.007 145.584 294.906C143.717 296.322 142.369 298.119 141.54 300.296C137.158 300.907 134.012 303.151 132.104 307.034C98.1816 328.707 64.9309 351.39 32.352 375.083C36.3041 376.367 40.3481 377.041 44.484 377.104C44.8494 380.232 43.9509 382.927 41.788 385.189C27.7901 387.701 13.8607 390.396 0 393.274C0 387.884 0 382.494 0 377.104C4.00774 367.284 8.05174 357.401 12.132 347.459C14.6803 347.185 16.7023 348.083 18.198 350.154C18.7547 353.835 19.6534 357.429 20.894 360.934C37.2461 347.285 53.1975 333.136 68.748 318.488C58.3077 317.426 47.9732 318.099 37.744 320.509C32.0899 321.234 29.6187 318.989 30.33 313.771C36.8453 307.259 43.3607 300.745 49.876 294.232C53.9918 290.366 58.4851 286.998 63.356 284.126C72.3857 275.55 80.923 266.567 88.968 257.176C93.6048 253.187 98.5474 249.593 103.796 246.396C125.382 225.536 146.95 204.425 168.5 183.063C169.612 181.869 170.96 181.42 172.544 181.715Z" fill="#34D1FB"/>
<path fill-rule="evenodd" clip-rule="evenodd" d="M311.388 210.013C311.577 214.869 313.824 219.135 318.128 222.814C317.054 226.518 317.054 229.887 318.128 232.92C317.229 232.92 316.331 232.92 315.432 232.92C313.883 233.313 312.984 234.435 312.736 236.289C313.104 239.188 314.002 241.883 315.432 244.374C302.975 356.195 291.517 468.262 281.058 580.579C279.772 588.751 278.424 596.836 277.014 604.834C275.996 609.894 276.22 614.835 277.688 619.656C272.745 619.656 267.803 619.656 262.86 619.656C262.946 614.644 263.62 609.704 264.882 604.834C268.466 602.732 270.039 599.588 269.6 595.401C267.643 594.32 265.397 593.647 262.86 593.38C265.015 590.973 266.14 588.053 266.23 584.621C278.721 459.352 291.527 334.484 304.648 210.013C306.895 208.217 309.141 208.217 311.388 210.013Z" fill="#34D1FB"/>
<path fill-rule="evenodd" clip-rule="evenodd" d="M311.388 210.013C315.493 214.791 320.211 218.834 325.542 222.14C328.942 219.227 332.761 218.778 337 220.793C343.416 225.769 349.706 230.711 355.872 235.616C351.445 237.175 346.951 237.4 342.392 236.289C338.961 233.028 334.917 231.007 330.26 230.225C326.256 231.473 322.212 232.371 318.128 232.92C317.054 229.887 317.054 226.518 318.128 222.814C313.824 219.135 311.577 214.869 311.388 210.013Z" fill="#34D1FB"/>
<path fill-rule="evenodd" clip-rule="evenodd" d="M304.648 210.013C291.527 334.484 278.721 459.352 266.23 584.621C266.14 588.053 265.015 590.973 262.86 593.38C265.397 593.647 267.643 594.32 269.6 595.401C261.821 596.227 254.632 595.328 248.032 592.706C254.07 540.789 259.911 488.91 265.556 437.069C265.956 422.54 267.304 408.167 269.6 393.948C269.551 391.126 269.103 388.431 268.252 385.863C269.022 384.239 269.921 382.667 270.948 381.147C274.048 339.094 278.543 297.321 284.428 255.828C284.389 252.097 283.491 248.952 281.732 246.396C284.241 237.324 288.06 228.79 293.19 220.793C297.276 217.38 301.095 213.786 304.648 210.013Z" fill="#34D1FB"/>
<path fill-rule="evenodd" clip-rule="evenodd" d="M315.432 232.92C318.067 239.535 320.314 246.273 322.172 253.133C328.695 254.095 334.986 255.443 341.044 257.176C341.044 263.014 341.044 268.855 341.044 274.693C343.74 274.693 346.436 274.693 349.132 274.693C341.926 277.946 334.737 281.54 327.564 285.473C326.635 287.19 325.511 287.19 324.194 285.473C324.116 292.212 322.993 298.726 320.824 305.012C321.623 308.775 322.072 312.594 322.172 316.466C313.641 397.037 304.879 477.437 295.886 557.671C294.922 571.585 294.248 585.509 293.864 599.444C290.789 598.874 288.542 599.772 287.124 602.139C287.124 607.978 287.124 613.818 287.124 619.656C283.979 619.656 280.833 619.656 277.688 619.656C276.22 614.835 275.996 609.894 277.014 604.834C278.424 596.836 279.772 588.751 281.058 580.579C291.517 468.262 302.975 356.195 315.432 244.374C314.002 241.883 313.104 239.188 312.736 236.289C312.984 234.435 313.883 233.313 315.432 232.92Z" fill="#34D1FB"/>
<path fill-rule="evenodd" clip-rule="evenodd" d="M349.132 274.693C346.436 274.693 343.74 274.693 341.044 274.693C341.044 268.855 341.044 263.014 341.044 257.176C349.654 256.352 358.191 256.352 366.656 257.176C368.5 260.636 368.05 263.78 365.308 266.608C361.836 267.662 359.14 269.683 357.22 272.672C354.61 273.768 351.914 274.441 349.132 274.693Z" fill="#34D1FB"/>
<path fill-rule="evenodd" clip-rule="evenodd" d="M253.424 263.913C254.888 264.075 255.787 264.974 256.12 266.608C254.31 272.078 252.511 277.468 250.728 282.778C230.597 273.605 231.496 267.316 253.424 263.913Z" fill="#34D1FB"/>
<path fill-rule="evenodd" clip-rule="evenodd" d="M186.024 253.133C187.372 253.133 188.72 253.133 190.068 253.133C190.041 255.347 190.94 257.143 192.764 258.523C197.835 262.837 203.227 266.43 208.94 269.303C208.834 271.23 209.282 273.028 210.288 274.693C207.895 299.187 204.974 323.442 201.526 347.459C200.298 361.81 199.624 376.183 199.504 390.579C199.342 392.043 198.443 392.942 196.808 393.274C195.138 392.679 193.79 391.78 192.764 390.579C191.304 390.632 189.956 391.082 188.72 391.927C187.532 395.471 186.633 399.065 186.024 402.707C185.125 402.707 184.227 402.707 183.328 402.707C181.352 399.83 181.576 397.135 184.002 394.622C188.507 350.608 192.776 306.59 196.808 262.566C191.124 261.825 187.528 258.681 186.024 253.133Z" fill="#34D1FB"/>
<path fill-rule="evenodd" clip-rule="evenodd" d="M208.94 269.303C213.272 270.5 217.316 272.296 221.072 274.693C222.518 282.26 222.744 289.896 221.746 297.601C219.454 324.589 216.084 351.539 211.636 378.452C208.94 383.842 204.896 387.884 199.504 390.579C199.624 376.183 200.298 361.81 201.526 347.459C204.974 323.442 207.895 299.187 210.288 274.693C209.282 273.028 208.834 271.23 208.94 269.303Z" fill="#34D1FB"/>
<path fill-rule="evenodd" clip-rule="evenodd" d="M221.072 274.693C226.093 277.304 231.485 279.1 237.248 280.083C240.011 282.936 242.707 285.631 245.336 288.168C247.133 288.168 248.931 288.168 250.728 288.168C250.499 289.95 250.948 291.522 252.076 292.885C249.713 310.048 247.916 327.341 246.684 344.764C244.398 350.623 242.151 356.463 239.944 362.282C239.181 364.408 237.833 366.206 235.9 367.672C234.52 365.848 232.723 364.95 230.508 364.977C230.535 367.191 229.636 368.987 227.812 370.367C225.322 372.159 223.3 371.71 221.746 369.019C219.406 373.384 216.036 376.529 211.636 378.452C216.084 351.539 219.454 324.589 221.746 297.601C222.744 289.896 222.518 282.26 221.072 274.693Z" fill="#34D1FB"/>
<path fill-rule="evenodd" clip-rule="evenodd" d="M327.564 285.473C329.299 287.321 330.197 289.792 330.26 292.885C330.565 296.484 329.666 299.628 327.564 302.317C331.159 303.665 331.159 305.012 327.564 306.36C330.589 306.427 332.836 307.55 334.304 309.729C334.971 312.359 335.42 315.054 335.652 317.814C332.978 342.352 330.505 367.056 328.238 391.927C326.952 400.1 325.604 408.185 324.194 416.182C319.365 469.126 314.422 522.129 309.366 575.188C308.364 584.007 306.791 592.542 304.648 600.791C299.748 601.619 294.805 602.069 289.82 602.139C288.921 602.139 288.023 602.139 287.124 602.139C288.542 599.772 290.789 598.874 293.864 599.444C294.248 585.509 294.922 571.585 295.886 557.671C304.879 477.437 313.641 397.037 322.172 316.466C322.072 312.594 321.623 308.775 320.824 305.012C322.993 298.726 324.116 292.212 324.194 285.473C325.511 287.19 326.635 287.19 327.564 285.473Z" fill="#34D1FB"/>
<path fill-rule="evenodd" clip-rule="evenodd" d="M334.304 309.729C342.175 310.514 347.567 314.557 350.48 321.856C349.925 337.632 348.577 353.353 346.436 369.019C345.761 371.923 344.413 374.169 342.392 375.757C341.02 376.824 340.571 379.07 341.044 382.494C340.609 390.835 341.057 398.92 342.392 406.75C337.469 455.152 332.751 503.663 328.238 552.281C326.407 565.678 324.385 579.153 322.172 592.706C322.737 596.513 321.389 599.432 318.128 601.465C313.374 602.554 308.881 602.329 304.648 600.791C306.791 592.542 308.364 584.007 309.366 575.188C314.422 522.129 319.365 469.126 324.194 416.182C325.604 408.185 326.952 400.1 328.238 391.927C330.505 367.056 332.978 342.352 335.652 317.814C335.42 315.054 334.971 312.359 334.304 309.729Z" fill="#34D1FB"/>
<path fill-rule="evenodd" clip-rule="evenodd" d="M350.48 321.856C353.859 322.525 356.555 324.322 358.568 327.246C362.545 332.972 366.14 338.811 369.352 344.764C366.545 344.597 364.523 343.249 363.286 340.721C362.837 341.62 362.387 342.518 361.938 343.416C361.113 358.265 359.99 373.087 358.568 387.884C357.692 390.154 356.344 391.95 354.524 393.274C352.859 392.977 351.511 392.078 350.48 390.579C348.81 384.987 346.114 380.047 342.392 375.757C344.413 374.169 345.761 371.923 346.436 369.019C348.577 353.353 349.925 337.632 350.48 321.856Z" fill="#34D1FB"/>
<path fill-rule="evenodd" clip-rule="evenodd" d="M394.964 425.615C395.84 426.024 396.739 426.473 397.66 426.962C400.715 398.981 403.634 371.132 406.422 343.416C407.389 342.683 408.063 341.785 408.444 340.721C416.01 333.865 424.997 329.823 435.404 328.594C435.404 329.941 435.404 331.289 435.404 332.636C440.253 331.064 445.196 329.716 450.232 328.594C452.479 329.043 454.725 329.493 456.972 329.941C454.95 333.085 452.928 336.23 450.906 339.374C445.914 342.328 440.747 345.023 435.404 347.459C430.999 348.789 426.505 349.238 421.924 348.807C422.369 358.282 421.92 367.715 420.576 377.104C418.067 382.427 416.719 388.042 416.532 393.948C417.431 400.686 418.329 407.423 419.228 414.161C418.779 417.53 418.329 420.898 417.88 424.267C416.981 424.716 416.083 425.166 415.184 425.615C413.193 433.667 408.475 439.508 401.03 443.132C399.538 443.018 398.19 442.568 396.986 441.785C396.576 436.33 395.902 430.94 394.964 425.615Z" fill="#34D1FB"/>
<path fill-rule="evenodd" clip-rule="evenodd" d="M408.444 340.721C408.063 341.785 407.389 342.683 406.422 343.416C403.634 371.132 400.715 398.981 397.66 426.962C396.739 426.473 395.84 426.024 394.964 425.615C394.991 423.401 394.092 421.604 392.268 420.225C388.638 418.148 385.044 416.352 381.484 414.835C385.5 395.571 388.196 376.032 389.572 356.218C389.228 354.431 388.329 353.084 386.876 352.175C388.51 350.684 388.061 350.01 385.528 350.154C385.528 349.705 385.528 349.255 385.528 348.807C392.47 344.217 400.109 341.522 408.444 340.721Z" fill="#34D1FB"/>
<path fill-rule="evenodd" clip-rule="evenodd" d="M369.352 344.764C374.962 345.793 380.354 347.141 385.528 348.807C385.528 349.255 385.528 349.705 385.528 350.154C382.98 349.881 380.958 350.778 379.462 352.849C378.241 350.003 376.219 348.881 373.396 349.48C375.041 351.535 375.94 354.007 376.092 356.892C373.842 373.541 371.596 390.16 369.352 406.75C363.076 403.615 358.133 399.124 354.524 393.274C356.344 391.95 357.692 390.154 358.568 387.884C359.99 373.087 361.113 358.265 361.938 343.416C362.387 342.518 362.837 341.62 363.286 340.721C364.523 343.249 366.545 344.597 369.352 344.764Z" fill="#34D1FB"/>
<path fill-rule="evenodd" clip-rule="evenodd" d="M385.528 350.154C388.061 350.01 388.51 350.684 386.876 352.175C388.329 353.084 389.228 354.431 389.572 356.218C388.196 376.032 385.5 395.571 381.484 414.835C377.784 411.578 373.74 408.883 369.352 406.75C371.596 390.16 373.842 373.541 376.092 356.892C375.94 354.007 375.041 351.535 373.396 349.48C376.219 348.881 378.241 350.003 379.462 352.849C380.958 350.778 382.98 349.881 385.528 350.154Z" fill="#34D1FB"/>
<path fill-rule="evenodd" clip-rule="evenodd" d="M281.732 246.396C283.491 248.952 284.389 252.097 284.428 255.828C278.543 297.321 274.048 339.094 270.948 381.147C269.921 382.667 269.022 384.239 268.252 385.863C269.103 388.431 269.551 391.126 269.6 393.948C267.304 408.167 265.956 422.54 265.556 437.069C259.911 488.91 254.07 540.789 248.032 592.706C239.42 590.543 231.332 591.441 223.768 595.401C223.821 593.942 224.271 592.594 225.116 591.359C228.526 590.507 231.671 589.16 234.552 587.316C235.342 587.598 236.016 588.048 236.574 588.664C237.596 560.599 240.068 532.751 243.988 505.118C246.666 493.943 249.362 482.714 252.076 471.43C258.124 434.489 263.965 397.657 269.6 360.934C268.016 354.245 266.668 347.508 265.556 340.721C256.487 347.564 247.95 354.75 239.944 362.282C242.151 356.463 244.398 350.623 246.684 344.764C247.916 327.341 249.713 310.048 252.076 292.885C250.948 291.522 250.499 289.95 250.728 288.168C248.931 288.168 247.133 288.168 245.336 288.168C245.959 286.309 247.307 285.41 249.38 285.473C256.284 290.5 263.922 293.643 272.296 294.906C272.296 292.211 272.296 289.516 272.296 286.821C265.335 284.478 258.146 283.13 250.728 282.778C252.511 277.468 254.31 272.078 256.12 266.608C255.787 264.974 254.888 264.075 253.424 263.913C261.45 259.995 269.988 257.3 279.036 255.828C278.349 251.937 279.246 248.793 281.732 246.396Z" fill="#34D1FB"/>
<path fill-rule="evenodd" clip-rule="evenodd" d="M192.764 390.579C190.974 393.935 189.626 397.527 188.72 401.359C188.104 402.435 187.205 402.884 186.024 402.707C186.633 399.065 187.532 395.471 188.72 391.927C189.956 391.082 191.304 390.632 192.764 390.579Z" fill="#34D1FB"/>
<path fill-rule="evenodd" clip-rule="evenodd" d="M342.392 406.75C342.521 423.316 345.668 439.486 351.828 455.26C347.432 502.43 342.04 549.144 335.652 595.401C333.452 594.126 331.205 592.779 328.912 591.359C326.794 592.449 324.547 592.899 322.172 592.706C324.385 579.153 326.407 565.678 328.238 552.281C332.751 503.663 337.469 455.152 342.392 406.75Z" fill="#34D1FB"/>
<path fill-rule="evenodd" clip-rule="evenodd" d="M341.044 382.494C344.43 402.063 347.575 422.052 350.48 442.459C352.58 448.95 355.501 455.013 359.242 460.65C359.908 462.852 360.132 465.098 359.916 467.388C361.523 482.411 361.523 497.459 359.916 512.529C355.094 547.206 351.949 582.018 350.48 616.961C346.436 616.961 342.392 616.961 338.348 616.961C336.284 609.965 335.386 602.777 335.652 595.401C342.04 549.144 347.432 502.43 351.828 455.26C345.668 439.486 342.521 423.316 342.392 406.75C341.057 398.92 340.609 390.835 341.044 382.494Z" fill="#34D1FB"/>
<path fill-rule="evenodd" clip-rule="evenodd" d="M359.916 467.388C361.748 468.071 363.096 469.418 363.96 471.43C367.077 478.31 368.873 485.497 369.352 492.99C369.747 500.577 371.095 507.988 373.396 515.224C371.393 540.956 368.248 566.334 363.96 591.359C362.83 591.82 362.38 592.717 362.612 594.054C363.73 600.728 364.18 607.465 363.96 614.266C361.544 614.086 359.299 614.535 357.22 615.614C356.903 614.809 356.229 614.361 355.198 614.266C353.746 615.518 352.173 616.417 350.48 616.961C351.949 582.018 355.094 547.206 359.916 512.529C361.523 497.459 361.523 482.411 359.916 467.388Z" fill="#34D1FB"/>
<path fill-rule="evenodd" clip-rule="evenodd" d="M243.988 505.118C240.068 532.751 237.596 560.599 236.574 588.664C236.016 588.048 235.342 587.598 234.552 587.316C231.671 589.16 228.526 590.507 225.116 591.359C224.271 592.594 223.821 593.942 223.768 595.401C222.42 595.401 221.072 595.401 219.724 595.401C218.209 592.395 217.535 589.251 217.702 585.969C219.134 582.561 220.256 578.967 221.072 575.188C221.971 574.74 222.869 574.29 223.768 573.841C225.171 569.406 226.97 565.14 229.16 561.04C226.281 551.971 225.832 542.762 227.812 533.416C232.585 525.669 236.629 517.584 239.944 509.16C240.808 507.149 242.156 505.801 243.988 505.118Z" fill="#34D1FB"/>
<path fill-rule="evenodd" clip-rule="evenodd" d="M369.352 492.99C373.933 499.088 376.18 506.275 376.092 514.55C379.257 522.877 382.852 530.962 386.876 538.806C385.79 553.108 383.993 567.257 381.484 581.252C382.234 581.768 382.682 582.442 382.832 583.274C380.422 582.89 378.175 583.338 376.092 584.621C373.536 590.402 369.492 592.648 363.96 591.359C368.248 566.334 371.393 540.956 373.396 515.224C371.095 507.988 369.747 500.577 369.352 492.99Z" fill="#34D1FB"/>
<path fill-rule="evenodd" clip-rule="evenodd" d="M376.092 514.55C380.193 518.663 383.338 523.604 385.528 529.373C395.975 535.383 407.209 538.975 419.228 540.153C419.465 546.663 416.769 551.603 411.14 554.976C409.839 564.024 407.143 572.558 403.052 580.579C396.545 582.927 389.805 583.826 382.832 583.274C382.682 582.442 382.234 581.768 381.484 581.252C383.993 567.257 385.79 553.108 386.876 538.806C382.852 530.962 379.257 522.877 376.092 514.55Z" fill="#34D1FB"/>
<path fill-rule="evenodd" clip-rule="evenodd" d="M362.612 594.054C366.64 597.553 370.684 601.147 374.744 604.834C376.092 605.282 377.44 605.733 378.788 606.181C382.13 604.196 385.725 602.849 389.572 602.139C393.632 601.706 395.429 603.502 394.964 607.529C393.38 607.234 392.032 607.682 390.92 608.876C389.123 611.123 387.325 613.368 385.528 615.614C375.882 617.391 366.446 617.391 357.22 615.614C359.299 614.535 361.544 614.086 363.96 614.266C364.18 607.465 363.73 600.728 362.612 594.054Z" fill="#34D1FB"/>
<path fill-rule="evenodd" clip-rule="evenodd" d="M287.124 602.139C288.023 602.139 288.921 602.139 289.82 602.139C289.82 607.978 289.82 613.818 289.82 619.656C288.921 619.656 288.023 619.656 287.124 619.656C287.124 613.818 287.124 607.978 287.124 602.139Z" fill="#34D1FB"/>
</g>
</g>
<defs>
<clipPath id="clip0_8_4">
<rect width="512" height="512" fill="white"/>
</clipPath>
</defs>
</svg>
