<?xml version="1.0" encoding="UTF-8"?>
<svg viewBox="0 0 150 19" xmlns="http://www.w3.org/2000/svg">
<path d="M15 15.27L21.18 19L19.54 11.97L25 7.24L17.81 6.62L15 0L12.19 6.62L5 7.24L10.45 11.97L8.82 19L15 15.27Z" fill="#FACC15"/>
<path d="M45 15.27L51.18 19L49.54 11.97L55 7.24L47.81 6.62L45 0L42.19 6.62L35 7.24L40.45 11.97L38.82 19L45 15.27Z" fill="#FACC15"/>
<path d="M75 15.27L81.18 19L79.54 11.97L85 7.24L77.81 6.62L75 0L72.19 6.62L65 7.24L70.45 11.97L68.82 19L75 15.27Z" fill="#FACC15"/>
<path d="m105 15.27 6.18 3.73-1.64-7.03 5.46-4.73-7.19-0.62-2.81-6.62-2.81 6.62-7.19 0.62 5.45 4.73-1.63 7.03 6.18-3.73z" fill="#FACC15"/>
<path d="m135 15.27 6.18 3.73-1.64-7.03 5.46-4.73-7.19-0.62-2.81-6.62-2.81 6.62-7.19 0.62 5.45 4.73-1.63 7.03 6.18-3.73z" fill="#FACC15"/>
</svg>
